<?xml version="1.0" standalone="no"?>
<!DOCTYPE svg PUBLIC "-//W3C//DTD SVG 20010904//EN"
 "http://www.w3.org/TR/2001/REC-SVG-20010904/DTD/svg10.dtd">
<svg version="1.0" xmlns="http://www.w3.org/2000/svg"
 width="4096.000000pt" height="4096.000000pt" viewBox="0 0 4096.000000 4096.000000"
 preserveAspectRatio="xMidYMid meet">
<metadata>
Created by potrace 1.14, written by Peter Selinger 2001-2017
</metadata>
<g transform="translate(0.000000,4096.000000) scale(0.100000,-0.100000)"
fill="#000000" stroke="none">
<path d="M20410 40916 c-135 -56 -1089 -445 -1325 -541 -99 -41 -236 -97 -305
-125 -69 -28 -219 -90 -335 -136 -115 -47 -309 -126 -430 -176 -121 -49 -292
-119 -380 -154 -88 -36 -169 -69 -180 -74 -29 -13 -124 -52 -330 -135 -227
-92 -352 -143 -390 -159 -16 -8 -221 -91 -455 -186 -234 -94 -438 -178 -455
-185 -16 -7 -131 -54 -255 -105 -124 -50 -367 -149 -540 -220 -173 -70 -565
-230 -870 -354 -305 -125 -564 -231 -575 -236 -11 -5 -92 -38 -180 -73 -191
-77 -578 -234 -620 -252 -16 -7 -55 -23 -85 -35 -30 -12 -68 -28 -85 -35 -16
-7 -82 -34 -145 -59 -63 -26 -124 -51 -135 -56 -11 -5 -121 -50 -245 -100
-124 -50 -234 -95 -245 -100 -25 -11 -813 -332 -915 -372 -41 -17 -88 -36
-105 -43 -16 -7 -55 -23 -85 -35 -30 -12 -68 -28 -85 -35 -16 -7 -127 -52
-245 -100 -118 -48 -253 -103 -300 -122 -47 -19 -119 -49 -160 -65 -41 -17
-88 -36 -105 -43 -16 -7 -115 -48 -220 -90 -104 -42 -203 -82 -220 -90 -16 -7
-55 -23 -85 -35 -30 -12 -68 -28 -85 -35 -16 -7 -160 -66 -320 -131 -159 -64
-402 -163 -540 -219 -137 -56 -419 -171 -625 -255 -206 -84 -388 -158 -405
-165 -16 -8 -201 -83 -410 -168 -209 -85 -454 -185 -545 -222 -91 -37 -226
-92 -300 -122 -74 -30 -148 -61 -165 -68 -16 -7 -73 -30 -125 -51 -52 -20
-118 -48 -147 -61 -28 -12 -55 -23 -58 -23 -4 0 -21 -6 -38 -14 -18 -8 -93
-39 -167 -69 -235 -95 -584 -237 -605 -247 -11 -5 -110 -46 -220 -90 -391
-158 -621 -252 -662 -271 -24 -10 -49 -19 -56 -19 -7 0 -17 -4 -22 -9 -6 -4
-39 -20 -75 -34 -36 -14 -144 -58 -240 -97 -96 -40 -236 -96 -310 -126 -74
-30 -146 -59 -160 -66 -36 -15 -51 -22 -180 -74 -403 -162 -481 -195 -476
-202 2 -4 7 -45 10 -92 3 -47 8 -96 10 -110 3 -14 7 -61 10 -105 4 -44 8 -100
10 -125 3 -25 8 -79 11 -120 3 -41 8 -86 10 -100 2 -14 6 -61 10 -105 6 -81 8
-103 21 -230 3 -38 8 -83 9 -100 2 -16 6 -61 9 -100 4 -38 9 -99 12 -135 3
-36 7 -76 9 -90 2 -14 6 -59 10 -100 3 -41 8 -95 10 -120 3 -25 7 -76 10 -115
3 -38 8 -86 10 -105 5 -37 12 -114 20 -215 3 -33 7 -84 10 -112 3 -29 7 -79
10 -110 3 -32 7 -78 10 -103 2 -25 7 -76 10 -115 3 -38 8 -99 11 -135 2 -36 7
-87 10 -115 9 -95 13 -140 18 -205 3 -36 10 -117 16 -180 6 -63 12 -142 15
-175 3 -33 7 -85 10 -115 3 -30 7 -84 10 -120 3 -36 8 -90 11 -120 2 -30 6
-73 8 -95 2 -22 7 -78 11 -125 3 -47 8 -96 10 -110 3 -14 7 -65 10 -115 3 -49
8 -101 10 -115 2 -14 6 -65 10 -115 3 -49 8 -106 10 -125 2 -19 6 -64 10 -100
3 -36 7 -85 10 -110 2 -25 7 -76 10 -115 3 -38 7 -92 10 -120 14 -143 19 -207
30 -340 3 -44 8 -98 11 -121 2 -22 6 -67 9 -100 2 -32 7 -79 9 -104 3 -25 8
-81 11 -125 4 -44 8 -98 10 -120 6 -58 16 -173 20 -225 2 -25 7 -74 10 -110 3
-36 8 -87 10 -115 3 -27 7 -77 11 -110 8 -91 12 -133 19 -215 3 -41 8 -93 10
-115 2 -22 7 -71 10 -110 6 -67 8 -97 20 -210 3 -27 7 -81 10 -120 3 -38 8
-86 10 -105 3 -19 7 -62 10 -95 12 -136 16 -172 20 -205 2 -19 7 -69 10 -110
4 -41 8 -86 10 -100 2 -14 6 -56 10 -95 3 -38 8 -86 10 -105 2 -19 7 -64 10
-100 3 -36 8 -81 10 -100 2 -19 7 -61 10 -92 9 -101 16 -172 20 -208 2 -19 7
-66 10 -105 4 -38 8 -81 10 -95 4 -27 14 -112 19 -170 2 -19 7 -62 11 -95 9
-76 12 -103 20 -190 3 -38 8 -84 10 -101 3 -17 7 -57 10 -90 4 -32 8 -75 10
-94 3 -19 7 -60 10 -90 3 -30 8 -68 10 -85 5 -35 13 -106 20 -167 2 -24 11
-97 19 -163 9 -66 18 -145 21 -175 3 -30 8 -66 10 -80 3 -14 7 -51 9 -81 3
-31 7 -69 10 -85 3 -16 7 -54 10 -84 4 -30 9 -73 12 -95 3 -22 7 -53 9 -70 2
-16 9 -68 15 -115 7 -47 13 -96 15 -110 3 -28 15 -121 20 -160 5 -31 23 -171
30 -224 4 -35 10 -76 20 -146 2 -14 7 -50 10 -80 4 -30 9 -64 11 -75 2 -11 13
-83 24 -160 11 -77 22 -151 24 -165 3 -14 7 -43 10 -65 8 -64 26 -188 31 -216
3 -15 7 -47 10 -70 3 -24 14 -96 25 -159 11 -63 22 -133 25 -155 3 -22 10 -62
15 -90 10 -52 12 -63 30 -180 16 -106 20 -129 25 -145 2 -8 6 -35 10 -60 3
-25 7 -52 9 -60 1 -8 6 -37 10 -65 4 -27 11 -70 16 -95 6 -25 12 -58 15 -75
13 -74 35 -192 40 -215 3 -14 10 -52 15 -85 29 -165 163 -841 185 -935 2 -8
17 -78 34 -155 64 -297 117 -519 255 -1075 30 -118 175 -694 232 -920 42 -162
77 -302 79 -310 6 -27 43 -173 75 -300 18 -69 36 -141 40 -160 4 -19 63 -251
130 -515 67 -264 123 -487 125 -495 2 -8 12 -49 23 -90 11 -41 48 -183 82
-315 34 -132 77 -301 97 -375 19 -74 36 -143 38 -153 2 -10 40 -151 84 -315
105 -390 104 -384 151 -557 23 -82 48 -175 56 -205 37 -135 159 -552 199 -680
83 -264 173 -537 211 -643 13 -37 36 -100 50 -140 24 -66 55 -147 121 -317
142 -366 459 -994 589 -1167 13 -17 24 -34 24 -37 0 -20 263 -378 398 -541
254 -306 648 -702 1021 -1025 35 -30 87 -76 115 -101 69 -62 356 -304 491
-414 61 -49 112 -92 115 -95 5 -6 415 -342 476 -390 28 -23 153 -123 198 -160
10 -8 23 -20 30 -25 6 -6 92 -75 191 -155 99 -79 185 -149 191 -155 6 -5 26
-21 44 -35 18 -14 38 -30 44 -35 6 -6 81 -67 166 -135 85 -69 157 -127 160
-130 4 -5 86 -72 565 -459 72 -58 135 -110 142 -116 7 -5 18 -15 25 -20 103
-83 374 -301 378 -305 3 -3 37 -30 75 -60 39 -30 75 -58 80 -62 57 -46 153
-122 201 -159 32 -25 145 -113 250 -195 105 -82 206 -160 224 -174 19 -14 54
-41 79 -61 42 -32 402 -305 461 -349 24 -18 169 -126 280 -210 30 -23 87 -65
125 -93 94 -71 681 -497 725 -527 19 -14 37 -28 38 -32 2 -4 8 -8 13 -8 5 0
35 -20 66 -44 32 -24 99 -72 150 -107 50 -35 244 -170 430 -300 430 -300 809
-556 1348 -911 383 -252 1121 -718 1136 -718 5 0 9 -4 9 -10 0 -5 5 -10 11
-10 6 0 34 -15 62 -34 29 -18 77 -49 107 -68 72 -45 792 -477 850 -510 25 -14
113 -65 195 -113 83 -48 224 -130 315 -181 91 -52 172 -99 180 -104 8 -6 22
-13 30 -17 8 -4 76 -41 151 -84 74 -43 212 -119 305 -169 93 -51 192 -105 219
-120 175 -96 375 -203 626 -334 l146 -76 160 0 c87 0 163 4 168 9 6 5 73 41
150 81 77 40 203 107 280 148 77 41 178 95 225 120 47 24 94 50 105 57 22 13
91 51 210 115 106 57 286 158 305 170 8 6 22 13 30 17 8 4 69 38 134 75 66 37
120 68 121 68 3 0 812 471 857 499 168 103 224 137 232 140 5 2 51 30 103 62
52 33 96 59 98 59 6 0 696 430 980 612 592 378 1277 835 1840 1226 88 62 167
116 175 122 51 34 141 99 495 352 310 222 921 667 960 701 6 4 154 117 330
250 177 133 336 254 355 270 19 15 121 93 226 175 265 204 848 664 864 682 3
3 86 70 185 150 99 79 185 149 191 155 6 5 26 21 44 35 28 21 96 76 195 158
11 10 76 62 145 117 69 55 127 103 130 106 3 3 64 53 135 111 72 57 243 195
380 306 138 112 288 234 335 272 47 38 191 155 320 261 129 105 252 206 274
223 21 17 43 36 50 41 6 6 74 62 151 125 76 63 175 146 220 184 44 37 91 78
105 90 37 31 163 139 176 151 6 5 40 35 74 65 35 30 71 62 80 70 9 8 61 56
115 105 187 168 510 488 631 625 27 30 72 79 99 110 148 166 322 391 463 602
96 143 242 383 242 398 0 5 6 15 13 22 7 7 28 42 46 78 18 36 43 85 56 110
193 370 389 860 580 1448 96 296 238 760 249 817 2 6 12 42 24 80 11 39 33
115 47 170 34 126 34 129 85 315 75 274 109 402 149 555 22 83 44 165 50 183
5 18 10 33 10 35 -1 4 15 67 73 292 33 127 61 237 63 245 2 8 38 150 80 315
114 447 306 1204 317 1250 15 67 22 96 138 550 208 824 362 1440 367 1470 2
17 8 44 14 61 5 17 12 42 14 55 12 62 17 86 26 114 8 28 84 370 95 430 3 15
11 55 19 89 8 33 16 75 19 91 3 17 17 85 31 150 14 66 28 136 31 155 3 19 7
42 9 50 2 8 7 29 9 45 8 42 58 316 99 535 35 184 45 242 53 290 2 14 7 41 10
60 3 19 8 49 11 65 2 17 11 71 20 120 8 50 17 99 18 110 2 11 21 130 43 265
23 135 44 265 47 290 3 25 8 56 10 70 2 14 9 61 15 105 7 44 13 87 15 95 1 8
6 42 11 75 4 33 8 62 9 65 0 3 5 32 9 65 4 32 9 66 11 75 6 34 16 97 20 134 3
22 7 51 10 65 2 14 7 50 10 80 4 30 8 62 10 72 2 10 6 42 9 71 4 29 8 62 10
73 2 11 7 45 10 76 4 31 8 65 10 75 2 11 7 46 10 79 4 33 9 71 11 85 2 14 11
79 20 145 22 170 24 185 30 235 3 25 7 61 10 80 2 19 7 60 10 90 7 66 11 100
25 205 16 124 18 147 25 216 3 35 8 75 10 89 3 14 7 48 10 75 3 28 7 64 9 80
2 17 7 59 10 95 4 36 9 81 11 100 3 19 7 60 10 90 9 94 16 154 20 180 2 14 7
54 10 90 6 70 14 150 20 190 2 14 6 54 10 90 3 36 8 81 10 100 2 19 6 58 9 85
4 28 8 75 11 105 3 30 8 75 10 100 3 25 7 70 10 100 3 30 8 78 11 105 3 28 7
73 9 100 3 28 7 73 10 100 3 28 8 75 11 105 8 86 15 153 19 180 2 14 6 61 10
105 3 44 8 96 10 115 3 19 7 60 9 91 11 130 22 246 36 385 6 56 13 132 16 170
2 38 7 87 10 109 6 55 12 116 19 205 3 41 7 95 10 120 2 25 7 74 10 110 3 36
8 85 10 110 3 25 7 74 10 110 14 169 25 301 30 340 3 19 7 71 10 115 3 44 8
96 9 115 2 19 7 71 10 115 4 44 9 98 11 120 2 22 7 72 10 110 11 125 15 159
20 210 3 28 7 86 10 130 3 44 7 96 10 115 2 19 7 64 10 100 3 36 7 88 10 115
3 28 7 79 10 115 3 36 7 90 10 120 3 30 7 82 10 115 3 33 7 83 10 110 2 28 7
82 10 120 3 39 8 88 10 110 3 22 7 76 10 120 3 44 8 101 10 128 3 26 7 68 10
95 2 26 7 76 10 112 3 36 7 89 10 118 9 97 15 157 21 232 3 41 7 91 9 110 2
19 6 71 10 115 3 44 8 96 10 115 2 19 7 73 10 120 4 47 8 101 10 120 2 19 6
69 10 110 3 41 8 91 10 110 4 33 10 97 20 215 10 113 23 253 30 320 2 22 6 74
9 115 4 41 8 91 11 110 3 19 7 69 10 110 3 41 7 91 9 110 8 59 16 142 21 210
3 36 8 88 10 115 6 57 12 131 20 225 3 36 8 76 10 90 2 14 7 65 10 113 4 48 8
96 10 105 1 9 6 62 10 117 4 55 8 102 10 105 2 3 5 32 6 64 l3 58 -45 18 c-75
29 -323 130 -344 140 -11 5 -144 60 -295 121 -151 61 -288 117 -305 124 -16 8
-187 77 -380 155 -192 78 -363 148 -380 155 -46 19 -78 32 -250 102 -88 36
-225 92 -305 125 -80 32 -174 71 -210 85 -36 14 -78 31 -95 38 -16 7 -59 25
-95 40 -36 14 -78 32 -95 39 -16 7 -73 30 -125 51 -52 20 -109 43 -125 50 -17
8 -66 28 -110 45 -44 18 -93 38 -110 45 -36 15 -189 78 -415 169 -91 37 -176
72 -190 78 -27 12 -35 15 -125 52 -64 26 -392 159 -485 196 -30 12 -69 28 -85
36 -17 7 -66 27 -110 44 -44 18 -93 38 -110 46 -16 7 -52 22 -80 32 -53 21
-310 125 -360 147 -49 21 -292 120 -405 165 -58 23 -121 48 -140 57 -65 28
-75 32 -210 87 -74 29 -187 75 -250 101 -63 26 -149 60 -190 77 -41 16 -88 36
-105 43 -16 7 -93 38 -170 69 -77 31 -149 61 -160 66 -11 5 -69 29 -130 54
-60 24 -162 65 -225 91 -63 26 -248 101 -410 167 -162 66 -308 126 -325 133
-16 7 -65 27 -107 44 -43 17 -113 45 -155 62 -43 17 -91 37 -108 44 -39 17
-785 322 -845 345 -25 10 -72 29 -105 43 -33 13 -145 59 -250 101 -180 74
-254 104 -440 181 -44 18 -188 77 -320 131 -132 53 -316 128 -410 166 -93 39
-228 94 -300 123 -71 29 -193 79 -270 110 -77 31 -201 82 -275 112 -74 30
-148 61 -165 68 -16 7 -91 38 -165 68 -414 167 -719 291 -745 302 -16 7 -64
27 -105 43 -41 17 -93 38 -115 48 -22 10 -44 19 -50 20 -5 1 -93 37 -195 79
-102 42 -241 99 -310 126 -69 28 -138 57 -155 64 -16 7 -79 33 -140 58 -373
151 -651 265 -1035 422 -239 97 -484 197 -545 222 -346 141 -974 397 -1000
408 -16 7 -66 27 -110 45 -44 18 -105 42 -135 55 -30 13 -140 58 -245 100
-104 42 -203 83 -220 90 -16 7 -199 81 -405 165 -206 84 -388 158 -405 165
-16 7 -66 27 -110 45 -44 17 -93 37 -110 45 -35 16 -135 55 -138 55 -1 -1 -49
-20 -107 -44z m124 -9410 c-4 14 -4 16 4 5 6 -8 8 -20 5 -28 -3 -7 2 -16 11
-19 9 -3 16 -12 16 -20 0 -8 6 -14 13 -14 8 0 7 -4 -3 -10 -9 -6 -10 -10 -3
-10 6 0 22 -14 34 -32 14 -18 17 -28 8 -24 -7 4 -5 0 5 -8 11 -9 16 -16 11
-16 -5 0 0 -7 11 -16 10 -8 14 -13 7 -10 -6 4 -15 2 -18 -4 -4 -6 -3 -10 2 -9
21 4 33 -2 33 -17 0 -8 4 -13 8 -10 5 3 9 -1 10 -9 1 -8 3 -21 4 -29 1 -8 4
-15 7 -14 19 2 24 -4 11 -12 -13 -8 -12 -10 3 -10 9 0 17 -7 17 -15 0 -9 7
-18 16 -22 13 -5 13 -7 2 -14 -10 -7 -9 -9 5 -9 9 0 16 -3 16 -7 -3 -21 2 -33
12 -27 7 4 10 1 7 -7 -3 -8 1 -20 9 -27 7 -8 11 -18 8 -23 -4 -5 1 -9 10 -9 9
0 13 -4 10 -10 -3 -5 -2 -10 4 -10 6 0 7 -8 4 -17 -5 -12 -2 -15 10 -10 12 4
14 2 10 -10 -5 -12 -3 -14 7 -8 8 5 11 4 7 -2 -4 -6 2 -21 13 -34 12 -12 23
-33 26 -46 4 -12 10 -20 15 -17 5 3 9 2 8 -3 -3 -20 2 -34 11 -28 6 3 7 -1 4
-9 -4 -10 1 -18 11 -22 13 -5 14 -9 3 -15 -10 -7 -11 -9 0 -9 7 0 10 -4 7 -10
-3 -5 0 -7 8 -4 8 3 17 -2 21 -11 3 -9 2 -13 -4 -10 -6 3 -7 -1 -4 -9 3 -9 10
-13 15 -10 8 5 13 -9 10 -28 0 -5 4 -8 9 -8 6 0 10 -7 10 -16 0 -8 5 -12 10
-9 6 4 10 -5 10 -20 0 -15 4 -24 10 -20 6 3 10 -1 10 -9 0 -9 6 -16 13 -16 9
0 8 -3 -2 -9 -11 -7 -9 -10 7 -15 13 -4 19 -13 15 -21 -3 -8 2 -18 11 -21 9
-3 16 -15 16 -25 0 -10 5 -19 10 -19 6 0 10 -7 10 -16 0 -8 5 -12 10 -9 6 4
10 3 9 -2 -4 -22 2 -43 11 -38 6 3 10 -1 10 -10 0 -9 5 -13 10 -10 6 4 9 3 8
-2 -4 -13 23 -73 33 -73 5 0 8 -6 6 -12 -1 -7 4 -12 12 -10 9 2 11 -3 7 -13
-4 -11 2 -24 16 -36 21 -17 21 -19 3 -14 -16 5 -16 3 3 -6 12 -7 22 -20 22
-31 0 -10 5 -18 10 -18 6 0 10 -7 10 -15 0 -8 9 -19 20 -25 11 -6 18 -15 15
-20 -3 -5 -1 -11 5 -15 6 -4 8 -11 5 -16 -4 -5 2 -9 12 -9 14 0 15 -2 5 -9
-11 -7 -11 -9 2 -14 9 -4 16 -14 16 -22 0 -9 4 -13 10 -10 6 3 7 -1 4 -9 -3
-9 -1 -16 6 -16 6 0 8 -4 5 -10 -3 -5 1 -10 9 -10 10 0 13 -7 11 -21 -3 -12
-1 -19 2 -15 4 3 13 -8 20 -25 8 -20 17 -28 25 -23 7 4 10 4 6 -1 -4 -4 -2
-15 5 -23 10 -13 9 -15 -3 -8 -13 7 -13 6 0 -6 8 -7 22 -22 30 -32 12 -16 12
-18 1 -11 -10 5 -12 4 -7 -3 4 -7 15 -12 24 -12 15 0 15 -2 2 -10 -8 -5 -10
-10 -5 -10 6 0 19 -12 29 -27 11 -14 14 -23 8 -19 -8 5 -10 2 -6 -9 4 -9 13
-14 20 -11 9 3 11 0 7 -11 -4 -9 -2 -14 3 -10 6 3 11 -4 11 -15 1 -11 10 -26
19 -32 9 -7 14 -18 10 -25 -4 -7 2 -15 16 -20 13 -6 17 -10 10 -10 -14 -1 -10
-7 31 -52 11 -13 13 -19 5 -19 -9 0 -8 -3 2 -9 8 -6 19 -7 25 -3 5 3 4 -2 -4
-11 -10 -13 -10 -17 -1 -17 7 0 10 -7 6 -16 -3 -8 -2 -12 4 -9 6 3 13 -1 16
-9 3 -9 11 -13 18 -9 8 5 8 3 0 -8 -9 -11 -9 -17 2 -27 8 -7 14 -9 14 -5 0 4
5 1 10 -7 5 -8 7 -23 4 -34 -4 -12 -2 -16 5 -12 6 4 11 0 11 -9 0 -9 5 -13 10
-10 6 3 10 -3 10 -14 0 -12 5 -21 11 -21 6 0 9 -7 5 -15 -3 -8 3 -20 14 -28
11 -8 17 -17 13 -20 -3 -4 -1 -7 5 -7 7 0 12 -6 12 -14 0 -8 5 -16 10 -18 6
-2 12 -13 13 -25 0 -12 4 -21 7 -21 3 0 12 0 20 -1 13 -1 13 -2 0 -11 -10 -6
-11 -10 -2 -10 6 0 12 -9 12 -20 0 -11 6 -19 13 -18 6 2 11 -3 9 -9 -1 -7 3
-13 9 -13 5 0 7 -4 4 -10 -3 -5 -1 -10 5 -10 7 0 9 -7 6 -16 -3 -8 -2 -12 4
-9 6 3 10 -1 10 -10 0 -10 5 -13 13 -9 6 4 9 4 5 0 -4 -5 1 -22 11 -40 40 -70
56 -96 64 -96 4 0 7 -9 7 -20 0 -11 4 -20 9 -20 5 0 14 -13 21 -30 7 -16 16
-30 21 -30 5 0 9 -7 9 -15 0 -8 5 -15 10 -15 6 0 10 -5 10 -11 0 -5 -6 -7 -12
-4 -7 3 -3 -2 10 -11 12 -9 22 -23 22 -30 0 -8 5 -14 11 -14 5 0 7 -4 4 -10
-3 -5 -1 -10 5 -10 6 0 9 -4 6 -9 -3 -5 1 -12 10 -15 8 -3 12 -10 9 -16 -3 -5
-1 -10 4 -10 6 0 11 -5 11 -11 0 -7 8 -18 18 -26 11 -10 12 -12 2 -8 -9 4 -8
1 3 -8 14 -11 15 -16 5 -20 -9 -4 -7 -6 4 -6 9 -1 20 -6 24 -13 5 -7 3 -8 -7
-3 -8 5 -7 0 4 -12 9 -11 14 -23 10 -28 -5 -4 -1 -6 9 -2 11 4 15 1 14 -11 -2
-9 3 -23 11 -30 7 -8 10 -18 7 -24 -4 -6 -2 -8 4 -4 6 3 13 -3 17 -14 4 -11
10 -18 14 -15 5 2 7 -7 5 -20 -1 -14 1 -23 4 -21 4 2 13 -2 20 -10 7 -8 10
-14 6 -14 -4 0 0 -8 9 -17 8 -10 17 -25 19 -33 2 -8 11 -22 21 -32 13 -12 15
-17 5 -21 -8 -4 -7 -6 4 -6 10 -1 20 -12 24 -26 3 -14 10 -22 15 -19 5 3 6 -1
3 -9 -3 -8 0 -18 5 -22 6 -3 9 -11 5 -16 -3 -5 0 -8 8 -7 7 2 13 -4 13 -12 0
-8 7 -23 15 -32 33 -36 40 -48 40 -63 0 -8 5 -15 11 -15 5 0 7 -4 4 -10 -3 -5
1 -10 9 -10 10 0 13 -7 11 -20 -2 -11 -1 -18 4 -16 4 3 13 -4 20 -16 9 -15 10
-18 0 -13 -8 5 -10 4 -5 -3 4 -7 14 -12 22 -12 8 0 14 -4 14 -10 0 -5 -8 -6
-17 -3 -14 5 -13 3 3 -14 10 -11 26 -18 34 -15 13 3 13 3 0 -8 -11 -9 -12 -13
-2 -17 6 -2 12 -11 12 -19 0 -8 5 -14 10 -14 6 0 10 -9 10 -19 0 -11 5 -23 12
-27 7 -4 8 -3 4 4 -4 7 -5 12 -2 12 3 0 10 -10 17 -21 9 -17 8 -20 -3 -13 -7
4 -5 -2 5 -13 9 -11 14 -23 10 -28 -5 -4 -3 -6 2 -3 6 3 16 0 23 -8 10 -11 10
-14 0 -14 -7 -1 -2 -7 12 -15 14 -8 19 -14 12 -15 -10 0 -10 -3 0 -14 7 -8 18
-11 23 -8 6 3 3 -3 -5 -13 -14 -17 -13 -18 2 -12 13 4 16 1 13 -14 -2 -12 2
-19 11 -19 8 0 14 -7 14 -16 0 -9 8 -23 18 -31 10 -9 11 -12 2 -7 -8 3 -3 -5
13 -20 27 -27 36 -43 17 -31 -5 3 -10 1 -10 -4 0 -6 7 -11 16 -11 8 0 12 -4 9
-10 -3 -5 -1 -10 4 -10 6 0 11 -9 11 -20 0 -11 5 -20 11 -20 5 0 7 5 3 12 -4
7 -3 8 4 4 6 -4 9 -13 5 -21 -3 -8 0 -15 6 -15 6 0 10 -3 10 -7 -3 -21 2 -33
16 -33 8 0 12 -6 9 -13 -3 -8 2 -20 11 -27 8 -7 15 -17 15 -23 0 -5 8 -16 18
-24 9 -8 11 -11 4 -8 -11 6 -11 3 -1 -13 7 -12 17 -18 23 -15 5 3 6 1 2 -6 -5
-7 1 -20 13 -30 14 -12 17 -21 10 -28 -8 -8 -5 -13 10 -18 14 -4 21 -15 21
-33 0 -21 2 -24 10 -12 8 12 10 11 10 -7 0 -13 5 -23 11 -23 5 0 7 -4 4 -10
-3 -5 -1 -10 5 -10 6 0 8 -4 5 -10 -3 -5 1 -10 9 -10 9 0 13 -7 11 -20 -2 -13
2 -20 11 -20 9 0 14 -5 12 -12 -2 -6 6 -22 19 -36 12 -13 20 -28 17 -33 -3 -5
0 -9 5 -9 6 0 11 -6 11 -14 0 -7 7 -19 15 -26 8 -7 12 -16 9 -21 -3 -5 2 -9
11 -9 9 0 14 -4 10 -9 -3 -5 2 -16 10 -24 8 -9 15 -20 15 -25 0 -5 7 -15 15
-22 9 -7 14 -19 11 -27 -3 -7 1 -13 11 -13 9 0 14 -3 10 -6 -3 -4 1 -13 9 -21
8 -8 12 -19 9 -24 -4 -5 1 -9 9 -9 9 0 16 -5 16 -11 0 -5 -6 -7 -12 -4 -7 4
-2 -3 12 -15 14 -12 19 -18 11 -14 -9 5 -12 3 -7 -4 4 -7 14 -12 22 -12 8 0
12 -5 9 -10 -4 -6 -1 -17 5 -25 7 -8 9 -15 6 -15 -4 0 -1 -6 6 -14 7 -8 16
-12 20 -9 4 2 5 -3 2 -11 -3 -9 -1 -16 6 -16 6 0 8 -4 5 -10 -3 -5 1 -10 9
-10 10 0 13 -6 10 -15 -4 -8 -1 -15 5 -15 6 0 11 -8 11 -18 0 -10 9 -28 20
-40 11 -12 20 -24 20 -27 0 -4 7 -13 15 -22 8 -8 13 -19 10 -24 -4 -5 -1 -9 4
-9 6 0 11 -7 11 -16 0 -8 5 -12 10 -9 6 3 10 -3 10 -14 0 -12 5 -21 11 -21 6
0 9 -7 5 -15 -3 -8 -2 -14 2 -14 19 3 25 -2 12 -11 -13 -8 -12 -10 3 -10 10 0
15 -4 12 -10 -3 -5 -1 -10 4 -10 6 0 11 -7 11 -16 0 -9 5 -12 12 -8 6 4 8 3 4
-4 -3 -6 0 -17 8 -25 8 -8 12 -17 9 -21 -4 -3 -1 -6 6 -6 7 0 9 -4 6 -10 -3
-5 1 -10 9 -10 10 0 13 -6 10 -15 -4 -8 -1 -15 6 -15 6 0 8 -4 5 -10 -3 -5 2
-10 12 -10 15 0 16 -2 3 -10 -10 -6 -11 -10 -2 -10 6 0 12 -7 12 -15 0 -8 5
-15 10 -15 6 0 10 -7 10 -16 0 -8 5 -12 10 -9 6 3 10 -3 10 -14 0 -12 4 -21
10 -21 5 0 9 -6 7 -12 -1 -7 4 -12 11 -11 6 2 12 -1 12 -6 0 -5 -6 -12 -12
-14 -8 -3 -5 -6 5 -6 10 -1 15 -5 12 -11 -3 -5 -1 -10 4 -10 6 0 11 -7 11 -15
0 -8 5 -15 10 -15 6 0 10 -7 10 -16 0 -9 5 -12 13 -8 8 5 8 2 -2 -9 -12 -15
-11 -17 2 -17 9 0 19 -5 23 -12 5 -7 3 -8 -5 -3 -9 5 -9 1 1 -14 7 -12 16 -21
20 -21 5 0 8 -9 8 -21 0 -11 5 -17 10 -14 6 3 11 -1 11 -9 3 -38 16 -59 31
-50 6 4 9 3 6 -2 -9 -14 11 -56 22 -49 6 4 10 3 9 -2 -2 -15 13 -53 22 -53 5
0 9 -7 9 -15 0 -8 5 -15 10 -15 6 0 10 -9 10 -21 0 -13 4 -18 12 -13 8 5 9 0
6 -14 -4 -14 -2 -22 7 -22 15 0 28 -27 19 -41 -3 -5 0 -8 8 -7 8 2 12 -4 10
-15 -2 -10 3 -16 10 -15 7 2 12 -3 10 -9 -1 -7 2 -13 8 -13 5 0 10 -7 10 -15
0 -8 3 -15 8 -15 4 0 13 -15 21 -32 8 -18 20 -41 28 -50 8 -9 12 -22 7 -29 -5
-9 -2 -10 9 -6 9 3 18 0 21 -9 4 -10 1 -13 -7 -9 -6 4 -1 -3 13 -15 14 -12 19
-19 13 -15 -21 10 -15 -2 15 -31 15 -15 21 -23 15 -20 -22 12 -14 -5 13 -30
14 -13 19 -24 12 -24 -7 0 -2 -7 10 -16 12 -8 22 -22 22 -30 0 -8 5 -14 11
-14 5 0 8 -4 4 -9 -3 -5 -1 -12 5 -16 6 -4 8 -10 5 -15 -3 -5 6 -18 21 -29 14
-11 23 -24 20 -30 -3 -5 1 -11 9 -14 8 -4 12 -15 10 -27 -4 -19 -2 -20 11 -9
8 7 14 8 13 3 -3 -18 13 -54 25 -54 6 0 4 -5 -4 -10 -13 -8 -12 -10 3 -10 11
0 20 -10 23 -30 4 -16 10 -27 15 -24 5 3 9 -2 9 -10 0 -9 5 -16 12 -16 6 0 8
-3 5 -7 -4 -3 1 -12 11 -20 9 -8 11 -11 3 -7 -8 4 -2 -9 13 -29 16 -20 25 -37
21 -37 -5 0 1 -8 13 -18 15 -13 18 -22 12 -30 -6 -7 -8 -10 -4 -8 10 7 45 -34
39 -44 -4 -6 3 -14 14 -18 11 -4 20 -9 20 -12 0 -3 5 -18 12 -35 7 -16 12 -33
11 -37 -1 -4 9 -16 23 -26 13 -11 21 -23 17 -26 -4 -4 1 -14 11 -21 10 -7 18
-16 18 -19 -2 -18 1 -25 23 -51 14 -16 23 -32 20 -37 -3 -4 0 -8 5 -8 6 0 11
-7 11 -15 0 -8 5 -15 11 -15 5 0 7 -4 4 -10 -6 -9 8 -14 28 -11 4 1 3 -8 -4
-20 -8 -15 -8 -19 0 -15 6 4 11 0 11 -8 0 -9 5 -16 11 -16 5 0 7 -4 4 -10 -3
-5 1 -10 11 -10 14 0 15 -2 3 -17 -8 -9 -9 -14 -2 -10 7 4 14 -1 18 -13 3 -11
12 -20 18 -20 7 0 6 -4 -3 -10 -13 -8 -12 -10 3 -10 9 0 17 -5 17 -11 0 -5 6
-7 13 -3 9 5 9 4 0 -6 -14 -15 -6 -40 14 -40 8 0 12 -4 9 -9 -3 -5 1 -14 10
-21 12 -11 12 -15 2 -22 -9 -7 -7 -8 8 -5 13 3 21 -1 21 -9 0 -7 -5 -10 -10
-7 -6 3 -7 1 -3 -5 4 -7 15 -12 24 -12 14 0 15 -2 2 -10 -12 -8 -12 -10 3 -16
9 -3 14 -10 11 -15 -3 -5 0 -9 5 -9 6 0 11 -7 11 -15 0 -8 5 -15 10 -15 6 0 9
-3 9 -7 -4 -24 3 -35 17 -29 8 3 13 2 10 -2 -3 -5 1 -20 9 -35 7 -14 11 -28 8
-31 -3 -2 4 -11 16 -18 12 -7 21 -19 21 -26 0 -8 5 -10 13 -6 7 5 6 0 -3 -11
-9 -11 -10 -16 -2 -11 7 4 12 2 12 -4 0 -6 7 -18 15 -26 8 -8 11 -22 8 -32 -3
-9 -2 -14 2 -10 11 10 38 -29 30 -42 -4 -6 1 -7 11 -3 11 4 15 3 11 -4 -4 -6
1 -19 10 -29 10 -10 18 -20 18 -23 0 -3 4 -5 9 -3 5 2 3 -5 -5 -14 -8 -10 -9
-15 -3 -11 6 3 16 -5 22 -18 7 -14 17 -25 24 -25 9 0 8 -3 -2 -10 -10 -6 -11
-10 -2 -10 6 0 12 -7 12 -15 0 -8 5 -15 11 -15 5 0 8 -4 5 -9 -3 -5 1 -11 9
-15 8 -3 15 -12 15 -21 0 -8 5 -15 12 -15 6 0 8 -3 5 -7 -4 -3 3 -18 15 -31
13 -14 16 -22 8 -18 -8 4 -7 1 4 -8 10 -8 15 -19 11 -25 -3 -6 1 -11 10 -11
11 0 15 -5 11 -15 -3 -8 0 -14 7 -12 7 1 11 -6 9 -15 -2 -11 3 -18 13 -18 9 0
13 -4 10 -10 -3 -5 -1 -10 5 -10 6 0 8 -4 5 -10 -3 -5 -1 -10 5 -10 6 0 8 -4
5 -10 -3 -5 -2 -10 2 -10 5 0 14 -9 21 -21 11 -17 11 -20 0 -14 -7 3 -5 0 5
-8 9 -8 17 -17 17 -21 0 -4 7 -14 15 -23 8 -8 13 -19 10 -24 -4 -5 -1 -9 5 -9
6 0 8 -4 5 -10 -3 -5 1 -10 10 -10 9 0 13 -5 10 -10 -3 -6 1 -13 9 -16 9 -3
14 -10 11 -14 -3 -4 5 -19 16 -34 11 -14 17 -31 13 -37 -5 -8 -3 -9 6 -4 10 6
12 4 6 -10 -6 -16 -4 -16 11 -4 10 9 14 9 10 2 -5 -7 -1 -24 8 -37 9 -14 14
-30 10 -35 -4 -7 1 -8 11 -4 12 4 15 3 10 -5 -4 -7 -1 -15 8 -18 9 -3 14 -10
11 -14 -3 -5 2 -16 11 -24 11 -12 12 -16 2 -16 -7 0 -2 -7 10 -16 12 -8 22
-22 22 -30 0 -8 5 -14 10 -14 6 0 10 -7 10 -16 0 -8 4 -13 9 -9 6 3 8 -4 6
-15 -3 -13 1 -20 12 -20 9 0 13 -6 9 -15 -3 -9 1 -18 9 -21 8 -4 12 -10 9 -15
-3 -5 3 -9 13 -9 15 0 16 -2 3 -10 -11 -7 -11 -10 -2 -10 7 0 10 -4 7 -10 -3
-5 1 -10 10 -10 9 0 13 -4 10 -10 -3 -5 -1 -10 6 -10 7 0 10 -3 6 -6 -3 -4 1
-13 9 -21 8 -8 12 -19 9 -24 -4 -5 2 -9 12 -9 15 0 16 -2 3 -10 -13 -8 -12
-10 3 -10 9 0 16 -3 16 -7 -4 -22 2 -33 13 -27 8 5 9 2 5 -9 -4 -12 -1 -17 11
-17 13 0 14 -2 4 -9 -11 -6 -10 -10 3 -15 10 -4 15 -12 11 -22 -3 -8 -2 -12 4
-9 6 3 10 -1 10 -9 0 -9 7 -16 15 -16 8 0 12 -6 9 -13 -2 -7 3 -22 13 -33 10
-11 19 -26 21 -33 2 -7 13 -22 25 -32 20 -18 20 -19 2 -13 -16 5 -15 2 7 -18
15 -14 25 -28 21 -32 -3 -3 -1 -6 6 -6 7 0 9 -4 6 -10 -3 -5 -1 -10 4 -10 6 0
11 -10 11 -22 0 -19 2 -20 10 -8 8 12 10 10 10 -8 0 -13 4 -21 9 -18 5 3 8 -2
7 -12 0 -9 4 -16 10 -15 7 1 11 -9 10 -26 -1 -19 2 -27 10 -24 6 2 18 -10 25
-26 8 -17 18 -31 24 -31 5 0 4 -4 -4 -9 -11 -7 -9 -10 9 -16 16 -5 21 -13 18
-30 -4 -16 -1 -22 9 -18 8 3 13 -2 13 -16 0 -13 6 -21 18 -21 12 0 13 -3 5 -8
-9 -6 -8 -11 6 -22 11 -7 17 -20 13 -28 -3 -9 -1 -13 5 -9 14 9 37 -48 27 -64
-4 -7 -3 -10 3 -6 6 4 19 -1 29 -9 10 -9 13 -13 7 -9 -7 3 -13 2 -13 -3 0 -6
7 -13 16 -16 8 -3 12 -10 9 -16 -3 -5 -1 -10 4 -10 6 0 11 -6 11 -14 0 -8 5
-18 12 -22 7 -5 8 -3 3 6 -5 8 -4 11 3 6 6 -4 9 -13 6 -20 -3 -8 0 -17 5 -21
6 -3 9 -11 5 -16 -3 -6 3 -13 14 -16 14 -3 19 -11 17 -24 -2 -11 0 -17 6 -14
5 4 9 -1 9 -9 0 -8 7 -22 16 -30 8 -9 13 -16 9 -16 -4 0 1 -7 9 -16 9 -8 14
-20 10 -25 -3 -5 0 -8 8 -7 7 2 13 -4 13 -12 0 -8 6 -19 13 -23 7 -5 10 -12 7
-18 -4 -5 0 -9 8 -9 11 0 13 -7 9 -22 -3 -12 -1 -19 5 -15 13 8 46 -50 37 -66
-4 -6 -3 -9 1 -4 11 9 46 -23 38 -35 -3 -6 0 -14 6 -18 7 -4 13 -16 14 -27 0
-12 6 -19 13 -16 9 3 11 -3 7 -19 -3 -16 -2 -19 5 -10 7 11 11 8 16 -12 4 -15
11 -24 16 -21 6 3 7 -1 4 -9 -3 -9 -1 -16 6 -16 6 0 9 -4 5 -9 -3 -5 -1 -12 5
-16 6 -4 7 -12 4 -18 -4 -7 -4 -9 0 -5 11 10 34 -14 29 -29 -3 -8 3 -13 13
-13 16 0 17 -2 4 -10 -13 -9 -7 -14 13 -11 4 0 6 -2 6 -6 -3 -21 2 -33 13 -27
7 5 8 3 4 -5 -5 -7 0 -18 10 -26 11 -7 16 -17 12 -20 -4 -4 0 -14 8 -22 8 -8
12 -19 9 -24 -4 -5 1 -9 10 -9 11 0 15 -5 11 -15 -3 -8 -1 -15 4 -15 16 0 41
-32 36 -47 -3 -7 1 -16 9 -19 8 -4 12 -10 9 -15 -3 -5 0 -9 5 -9 6 0 11 -6 11
-13 0 -7 9 -22 19 -34 10 -11 21 -29 23 -39 2 -10 10 -18 17 -16 7 1 10 -2 7
-7 -4 -5 0 -12 6 -15 7 -4 3 -4 -10 -2 -17 3 -21 1 -14 -7 7 -8 5 -16 -4 -25
-8 -7 -14 -8 -14 -3 0 6 -12 -1 -26 -14 -15 -14 -30 -22 -34 -20 -4 3 -11 -2
-14 -11 -3 -8 -10 -12 -16 -9 -5 3 -10 -2 -10 -12 0 -15 -2 -16 -10 -3 -7 12
-10 12 -10 1 0 -8 -6 -11 -16 -7 -8 3 -12 2 -9 -3 3 -5 -4 -12 -15 -16 -11 -4
-18 -10 -15 -15 3 -5 -4 -7 -15 -5 -13 2 -20 -1 -20 -11 0 -8 -3 -13 -7 -13
-22 4 -33 -2 -27 -13 5 -8 0 -7 -11 2 -10 8 -16 11 -13 5 3 -5 0 -16 -8 -23
-8 -7 -14 -10 -14 -5 0 4 -6 -1 -13 -12 -8 -10 -19 -15 -24 -12 -6 4 -14 0
-17 -9 -4 -9 -13 -14 -21 -10 -9 3 -15 0 -15 -10 0 -8 -4 -13 -9 -9 -5 3 -16
-2 -25 -11 -9 -8 -20 -13 -25 -9 -5 3 -13 0 -17 -6 -5 -8 -3 -9 6 -4 8 5 11 4
7 -2 -4 -6 -20 -13 -37 -17 -18 -3 -29 -10 -25 -16 3 -5 -2 -10 -12 -10 -24
-1 -55 -25 -45 -36 4 -4 -2 -2 -12 6 -13 10 -17 10 -12 3 6 -12 -5 -18 -27
-14 -4 0 -6 -5 -5 -11 2 -7 -3 -12 -9 -10 -7 1 -13 -3 -13 -9 0 -5 -4 -8 -9
-5 -11 7 -33 -18 -25 -27 4 -3 -5 -4 -20 -1 -18 3 -25 0 -24 -8 2 -8 -5 -12
-16 -10 -10 2 -15 -1 -12 -6 3 -6 -1 -13 -10 -16 -10 -4 -13 -2 -9 7 4 6 -3 1
-14 -13 -11 -14 -21 -21 -21 -16 0 6 -7 1 -16 -10 -8 -10 -12 -13 -9 -6 6 11
3 11 -13 1 -12 -7 -19 -16 -16 -20 2 -5 -5 -6 -16 -4 -11 2 -18 0 -15 -4 7
-12 -24 -23 -38 -14 -7 4 -5 -2 3 -12 13 -17 13 -18 -1 -13 -9 4 -26 0 -37 -7
-10 -8 -23 -11 -27 -7 -5 4 -5 -1 -2 -10 3 -10 3 -17 -1 -17 -22 4 -42 -2 -37
-11 3 -5 -2 -10 -12 -10 -10 0 -27 -7 -37 -15 -11 -8 -29 -15 -40 -15 -16 0
-17 -3 -8 -9 11 -7 10 -10 -3 -15 -9 -3 -21 -4 -26 0 -5 3 -9 -2 -9 -10 0 -8
-10 -16 -22 -18 -13 -2 -22 -9 -21 -15 2 -7 -3 -10 -11 -7 -7 3 -21 -2 -30
-11 -9 -9 -16 -14 -16 -10 0 3 -10 -4 -22 -15 -12 -11 -29 -18 -37 -15 -9 3
-12 3 -8 -1 10 -10 -52 -46 -65 -38 -7 5 -9 1 -5 -9 5 -13 1 -17 -19 -17 -14
0 -23 -4 -20 -9 3 -5 -5 -12 -19 -15 -14 -4 -25 -11 -25 -17 0 -6 -5 -7 -11
-4 -6 4 -16 0 -22 -10 -7 -9 -21 -18 -32 -19 -11 -2 -19 -10 -19 -19 1 -12 -3
-14 -22 -7 -19 8 -22 6 -17 -7 4 -10 2 -14 -4 -10 -6 4 -13 0 -17 -8 -3 -8
-15 -15 -26 -15 -11 0 -20 -5 -20 -12 0 -6 -3 -8 -7 -5 -3 4 -12 -1 -20 -11
-9 -10 -12 -11 -7 -2 4 8 -4 5 -18 -7 -13 -13 -30 -23 -36 -23 -7 0 -12 -5
-12 -12 0 -6 -3 -8 -7 -5 -3 4 -12 -1 -20 -11 -9 -10 -11 -11 -7 -2 7 12 5 13
-8 3 -8 -7 -18 -9 -22 -5 -4 4 -6 2 -4 -4 2 -7 -1 -12 -5 -13 -4 0 -15 -7 -23
-16 -9 -8 -21 -12 -27 -8 -6 4 -8 0 -4 -9 4 -12 1 -14 -15 -10 -16 4 -19 2
-13 -8 5 -8 3 -11 -6 -8 -8 3 -21 -3 -29 -12 -8 -9 -30 -23 -47 -31 -18 -7
-33 -18 -33 -22 0 -5 -5 -5 -10 -2 -6 3 -13 -1 -16 -10 -6 -13 -8 -14 -15 -3
-7 10 -9 9 -9 -5 0 -10 -4 -15 -10 -12 -5 3 -10 1 -10 -5 0 -6 -4 -8 -10 -5
-5 3 -10 1 -10 -5 0 -7 -7 -10 -15 -6 -8 3 -14 0 -12 -7 1 -7 -4 -11 -10 -9
-7 1 -13 -3 -13 -9 0 -5 -4 -7 -10 -4 -5 3 -10 2 -10 -4 0 -6 -11 -13 -24 -17
-14 -3 -27 -12 -30 -21 -3 -8 -10 -11 -16 -8 -5 3 -10 1 -10 -4 0 -6 -7 -11
-15 -11 -8 0 -24 -10 -36 -22 -12 -13 -18 -17 -14 -9 5 9 -1 7 -19 -4 -14 -9
-24 -21 -21 -25 3 -5 -6 -7 -21 -4 -15 3 -23 1 -20 -5 4 -5 -3 -12 -14 -16
-11 -3 -20 -10 -20 -15 0 -5 -6 -7 -14 -4 -7 3 -16 -2 -20 -11 -3 -9 -10 -13
-16 -10 -5 3 -10 1 -10 -5 0 -6 -4 -9 -9 -6 -5 3 -12 -1 -15 -10 -4 -9 -9 -14
-13 -11 -3 4 -12 -1 -20 -11 -10 -11 -12 -12 -8 -2 4 8 -1 6 -9 -4 -9 -11 -16
-16 -16 -11 0 5 -12 -2 -27 -16 -14 -13 -23 -17 -19 -9 4 9 1 8 -7 -3 -9 -11
-22 -15 -33 -11 -16 5 -16 4 -4 -5 14 -10 13 -12 -10 -15 -6 0 -14 -7 -19 -14
-5 -8 -11 -13 -15 -13 -12 1 -41 -13 -48 -23 -4 -6 -12 -12 -18 -12 -5 -1 -15
-2 -21 -3 -5 0 -7 -6 -3 -13 4 -6 3 -8 -4 -4 -6 3 -13 2 -17 -4 -4 -6 -11 -8
-16 -5 -5 4 -9 -2 -9 -12 0 -15 -2 -16 -10 -3 -8 13 -10 13 -10 -2 0 -11 -5
-15 -15 -12 -8 4 -15 1 -15 -4 0 -6 -9 -14 -20 -17 -11 -4 -18 -11 -15 -16 3
-5 0 -6 -8 -3 -8 3 -22 -2 -31 -11 -9 -9 -16 -14 -16 -11 0 3 -9 -3 -20 -14
-12 -12 -25 -18 -30 -15 -6 4 -10 2 -10 -3 0 -6 -13 -15 -30 -21 -16 -5 -30
-15 -30 -20 0 -6 -7 -7 -17 -4 -11 4 -14 3 -9 -5 4 -7 1 -12 -8 -12 -9 0 -16
-4 -16 -10 0 -5 -7 -6 -17 -3 -11 4 -14 3 -9 -5 6 -11 -5 -17 -26 -13 -5 0 -8
-6 -8 -15 0 -8 -5 -12 -11 -9 -6 4 -17 -1 -25 -11 -9 -11 -12 -12 -8 -4 6 13
-21 -5 -46 -30 -3 -3 -12 -5 -20 -5 -8 0 -14 -6 -13 -12 2 -7 0 -12 -5 -11 -4
1 -17 -3 -28 -10 -12 -6 -25 -8 -29 -4 -5 4 -5 -1 -2 -10 4 -13 2 -15 -10 -11
-12 5 -14 3 -8 -8 8 -12 6 -12 -9 0 -15 12 -17 12 -14 0 2 -8 -3 -13 -9 -12
-7 2 -13 -2 -13 -8 0 -5 -5 -7 -10 -4 -6 3 -13 0 -16 -8 -3 -8 -19 -17 -35
-21 -17 -3 -28 -10 -24 -16 6 -9 -8 -14 -28 -11 -4 1 -10 -5 -13 -13 -3 -9
-12 -12 -21 -9 -12 5 -14 3 -8 -7 6 -10 4 -12 -9 -7 -9 4 -15 3 -12 -1 7 -11
-25 -30 -46 -26 -11 1 -15 -3 -11 -14 5 -12 2 -14 -11 -9 -10 4 -15 3 -11 -3
3 -5 -6 -12 -20 -16 -14 -3 -25 -11 -25 -17 0 -6 -3 -7 -7 -4 -3 4 -12 -1 -20
-11 -8 -9 -12 -11 -8 -4 11 21 -5 13 -31 -16 -14 -15 -27 -25 -27 -23 -1 2
-12 1 -25 -3 -12 -4 -19 -12 -16 -18 4 -6 1 -9 -7 -6 -8 3 -20 -1 -27 -9 -8
-7 -18 -11 -23 -8 -5 4 -9 2 -9 -3 0 -5 -12 -17 -26 -27 -18 -12 -24 -13 -19
-4 3 8 -1 5 -10 -6 -9 -11 -21 -19 -26 -18 -5 2 -9 -2 -9 -8 0 -5 -4 -7 -10
-4 -5 3 -10 1 -10 -5 0 -6 -5 -8 -12 -4 -7 5 -9 2 -6 -8 5 -11 -1 -14 -23 -13
-15 1 -26 -1 -24 -5 2 -3 -5 -14 -15 -23 -13 -11 -20 -12 -24 -4 -2 7 -5 4 -5
-5 -1 -17 -8 -21 -43 -21 -10 0 -14 -5 -11 -13 3 -8 -1 -14 -11 -14 -21 0 -55
-19 -79 -45 -10 -11 -15 -14 -12 -7 6 11 3 11 -14 0 -12 -7 -21 -16 -21 -21 0
-4 -4 -5 -10 -2 -5 3 -10 1 -10 -5 0 -6 -4 -8 -10 -5 -5 3 -10 2 -10 -3 0 -5
-12 -15 -27 -22 -16 -8 -43 -25 -62 -39 -19 -13 -31 -19 -27 -13 5 8 2 10 -8
6 -9 -3 -14 -10 -11 -14 5 -9 -21 -23 -45 -25 -8 0 -14 -7 -12 -14 2 -8 -3
-11 -13 -8 -8 4 -15 2 -15 -2 0 -5 -13 -14 -30 -20 -16 -5 -30 -15 -30 -21 0
-6 -4 -8 -10 -5 -5 3 -10 1 -10 -5 0 -6 -4 -9 -9 -6 -5 3 -11 -1 -15 -9 -3 -8
-15 -15 -26 -15 -11 0 -20 -5 -20 -11 0 -5 -4 -7 -10 -4 -5 3 -10 2 -10 -4 0
-6 -11 -13 -25 -17 -14 -3 -25 -9 -25 -13 0 -3 -9 -12 -21 -19 -17 -11 -20
-11 -14 0 5 7 -2 3 -14 -9 -12 -13 -29 -23 -37 -23 -11 0 -14 -5 -10 -16 5
-14 4 -15 -8 -5 -11 9 -15 8 -20 -4 -3 -9 -10 -13 -16 -10 -6 3 -13 -1 -16
-10 -4 -9 -13 -14 -20 -11 -8 3 -14 1 -14 -5 0 -5 -8 -9 -17 -7 -13 2 -17 -3
-15 -16 2 -13 -1 -17 -10 -13 -8 3 -19 -3 -25 -13 -7 -11 -21 -16 -37 -15 -18
2 -23 -1 -19 -11 3 -8 2 -14 -3 -13 -16 4 -64 -20 -64 -31 0 -6 -4 -8 -10 -5
-5 3 -10 1 -10 -5 0 -7 -6 -10 -14 -7 -8 3 -17 -1 -20 -9 -3 -9 -10 -13 -15
-10 -5 3 -12 -1 -15 -10 -3 -8 -10 -13 -15 -10 -5 4 -11 2 -13 -3 -1 -5 -9
-11 -17 -13 -8 -2 -25 -12 -39 -23 -13 -11 -28 -21 -33 -21 -5 -1 -14 -2 -20
-3 -5 0 -8 -5 -5 -10 5 -8 -22 -22 -49 -25 -20 -3 -35 -18 -29 -28 4 -6 -1 -8
-16 -3 -19 6 -22 4 -17 -9 4 -10 3 -15 -3 -11 -6 3 -10 1 -10 -5 0 -6 -4 -8
-10 -5 -5 3 -10 2 -10 -4 0 -6 -7 -8 -15 -5 -8 4 -15 2 -15 -4 0 -5 -9 -12
-21 -15 -12 -3 -18 -10 -15 -15 3 -6 -2 -8 -14 -5 -14 4 -20 0 -20 -11 0 -9
-6 -13 -14 -10 -8 3 -21 -5 -30 -17 -8 -13 -18 -20 -22 -16 -4 3 -21 -5 -40
-19 -18 -14 -38 -23 -43 -20 -5 4 -13 1 -17 -5 -5 -8 -3 -9 6 -4 9 6 11 4 6
-4 -5 -7 -14 -10 -21 -7 -8 3 -17 -3 -20 -14 -4 -11 -12 -17 -21 -13 -7 3 -14
0 -14 -6 0 -6 -9 -11 -21 -11 -15 0 -19 -5 -15 -16 3 -8 2 -13 -3 -10 -5 3
-14 -1 -21 -9 -7 -8 -16 -12 -21 -10 -11 7 -71 -30 -62 -38 6 -6 -20 -11 -39
-8 -5 0 -8 -4 -8 -10 0 -6 -7 -9 -15 -5 -8 3 -14 0 -12 -6 1 -7 -5 -13 -13
-13 -8 0 -14 -6 -13 -13 2 -7 0 -11 -5 -11 -20 3 -32 -2 -26 -13 4 -6 3 -8 -3
-5 -11 7 -63 -14 -63 -25 0 -5 -7 -8 -15 -8 -9 0 -18 -7 -21 -15 -4 -8 -10
-12 -15 -9 -5 3 -9 0 -9 -6 0 -7 -6 -10 -14 -7 -8 3 -17 -1 -20 -10 -4 -8 -13
-13 -21 -9 -8 3 -14 2 -14 -2 3 -19 -2 -25 -11 -12 -8 13 -10 12 -10 -2 0 -16
-11 -23 -25 -15 -2 1 -12 -8 -20 -20 -9 -13 -22 -20 -30 -17 -8 4 -18 -1 -21
-10 -3 -9 -10 -13 -15 -10 -5 3 -12 -2 -15 -10 -3 -9 -10 -13 -15 -10 -5 3 -9
0 -9 -6 0 -6 -4 -8 -10 -5 -5 3 -10 1 -10 -5 0 -6 -4 -9 -9 -5 -6 3 -15 -4
-21 -15 -6 -11 -20 -20 -31 -20 -11 0 -22 -6 -25 -14 -3 -8 -15 -13 -26 -11
-15 3 -18 0 -14 -13 6 -16 5 -16 -8 1 -7 9 -22 17 -32 17 -11 0 -25 9 -32 20
-7 11 -18 17 -27 14 -8 -4 -17 1 -21 10 -3 9 -12 16 -20 16 -8 0 -14 4 -14 10
0 5 -6 9 -12 7 -7 -1 -12 3 -11 10 2 7 -6 10 -17 8 -12 -2 -18 0 -15 6 4 5 -1
9 -9 9 -9 0 -16 4 -16 10 0 5 -3 10 -7 9 -16 -2 -53 14 -53 22 0 5 -7 9 -15 9
-8 0 -15 4 -15 10 0 5 -7 7 -15 3 -9 -3 -15 -2 -13 3 2 5 1 9 -2 9 -15 2 -68
40 -64 46 2 5 -5 6 -16 4 -13 -2 -20 1 -20 11 0 8 -5 12 -10 9 -5 -3 -10 -1
-10 5 0 7 -7 9 -16 6 -11 -4 -18 1 -21 15 -4 16 -8 17 -14 7 -7 -10 -9 -10 -9
0 0 6 -6 12 -14 12 -8 0 -22 10 -30 22 -11 15 -16 18 -16 8 -1 -11 -3 -11 -11
3 -6 9 -14 15 -20 12 -5 -4 -9 -1 -9 4 0 6 -7 11 -16 11 -8 0 -12 5 -9 10 3 6
-3 10 -14 10 -12 0 -21 5 -21 11 0 5 -5 7 -10 4 -5 -3 -10 -1 -10 5 0 6 -4 8
-10 5 -5 -3 -10 -2 -10 4 0 5 -16 15 -34 22 -19 7 -33 16 -30 21 5 7 -3 10
-22 7 -4 0 -10 4 -14 11 -4 6 -16 12 -27 13 -11 0 -20 8 -19 17 1 8 -5 14 -14
12 -8 -2 -20 5 -27 14 -9 13 -13 14 -13 4 0 -9 -4 -8 -13 5 -9 11 -19 15 -27
10 -8 -5 -11 -4 -7 2 4 6 -1 17 -10 24 -13 11 -15 11 -9 1 7 -11 4 -11 -13 0
-12 7 -21 17 -21 21 0 5 -7 6 -15 3 -10 -3 -19 1 -23 12 -4 9 -14 17 -22 17
-8 0 -14 5 -13 12 2 7 -4 10 -13 6 -8 -3 -25 4 -37 15 -31 28 -110 70 -124 65
-6 -2 -14 5 -18 16 -3 12 -15 21 -25 21 -10 0 -22 5 -26 12 -5 7 -3 8 6 3 9
-5 11 -4 6 4 -4 6 -12 8 -18 5 -6 -4 -13 -3 -17 2 -11 16 -70 54 -83 54 -7 0
-18 8 -24 18 -6 9 -24 18 -39 20 -15 1 -35 11 -45 22 -10 11 -25 20 -34 20 -9
0 -16 5 -16 10 0 6 -10 10 -22 10 -19 0 -20 2 -8 10 12 8 10 10 -10 11 -14 1
-28 1 -33 0 -4 -1 -12 10 -19 24 -9 20 -14 22 -30 14 -10 -5 -18 -6 -17 -2 4
22 -3 31 -21 28 -11 -2 -19 1 -17 8 1 7 -4 11 -10 10 -7 -2 -13 2 -13 7 0 6
-8 10 -18 10 -10 0 -24 9 -32 19 -7 11 -17 18 -22 15 -4 -3 -8 -1 -8 5 0 6 -7
7 -17 4 -11 -4 -14 -3 -9 5 5 8 0 12 -14 12 -12 0 -18 5 -15 10 3 6 -3 10 -15
10 -11 0 -23 6 -26 14 -3 9 -12 12 -22 9 -11 -5 -14 -2 -9 10 4 12 1 15 -14
12 -10 -2 -19 0 -19 6 0 5 -7 9 -15 9 -8 0 -20 9 -27 19 -10 16 -15 18 -27 8
-10 -8 -13 -8 -8 -1 6 11 -23 30 -31 22 -2 -2 -10 8 -19 22 -8 14 -12 17 -9 8
4 -15 2 -16 -14 -6 -10 7 -17 15 -14 19 2 4 -3 10 -12 13 -10 4 -13 2 -8 -7 4
-6 -3 -2 -16 11 -12 13 -29 21 -37 18 -8 -3 -12 -2 -10 2 3 4 -1 13 -9 20 -8
7 -14 10 -14 6 0 -3 -6 -1 -13 5 -8 6 -17 9 -20 6 -4 -3 -5 -2 -2 1 7 11 -39
42 -57 39 -11 -2 -18 2 -18 11 0 8 -4 12 -10 9 -5 -3 -10 -1 -10 5 0 6 -4 8
-10 5 -5 -3 -10 -1 -10 5 0 6 -4 8 -10 5 -5 -3 -10 -2 -10 3 0 5 -18 17 -40
27 -22 10 -40 22 -40 28 0 5 -7 6 -16 3 -12 -4 -15 -2 -11 9 4 8 1 17 -5 21
-7 4 -8 3 -4 -4 4 -7 2 -12 -4 -12 -6 0 -13 7 -16 15 -4 10 -13 13 -25 10 -11
-4 -18 -3 -17 2 2 4 0 8 -3 8 -4 0 -17 9 -29 20 -12 11 -25 20 -29 20 -3 0 -5
4 -3 9 2 5 -4 6 -12 3 -9 -4 -21 2 -28 11 -7 9 -20 18 -28 20 -8 2 -18 9 -22
15 -6 9 -8 9 -8 0 0 -7 -4 -13 -10 -13 -5 0 -9 3 -9 8 3 19 -2 33 -10 28 -5
-3 -14 1 -21 9 -7 8 -21 15 -32 15 -12 0 -17 4 -12 12 5 8 2 9 -9 5 -11 -4
-17 -1 -17 9 0 8 -5 12 -10 9 -5 -3 -10 -2 -10 4 0 5 -9 8 -21 6 -16 -3 -18
-1 -10 9 8 10 4 12 -19 11 -26 -2 -28 0 -17 14 10 12 9 13 -1 7 -8 -5 -19 -1
-28 10 -9 11 -13 13 -9 7 4 -9 1 -11 -10 -7 -9 4 -13 9 -10 12 9 9 -66 42 -78
35 -6 -3 -7 -1 -3 5 4 7 2 12 -4 12 -6 0 -8 5 -4 11 4 8 0 8 -15 0 -17 -9 -21
-9 -19 1 2 7 -7 17 -19 23 -13 5 -23 13 -23 18 0 4 -4 6 -9 2 -5 -3 -16 1 -23
9 -8 7 -24 17 -36 20 -12 4 -22 14 -22 22 0 8 -4 13 -9 9 -5 -3 -13 0 -16 6
-4 5 -13 8 -20 5 -8 -3 -15 3 -17 12 -2 9 -12 17 -23 17 -11 0 -19 6 -17 13 1
7 -3 12 -10 11 -29 -3 -49 2 -43 11 3 6 -1 10 -9 10 -9 0 -16 5 -16 11 0 5 -4
7 -10 4 -5 -3 -10 -1 -10 5 0 6 -4 8 -10 5 -5 -3 -10 -1 -10 4 0 6 -7 11 -15
11 -8 0 -15 4 -15 8 0 4 -16 14 -35 21 -20 7 -33 17 -29 23 4 6 1 9 -7 6 -8
-3 -20 1 -27 9 -8 7 -18 11 -23 8 -5 -4 -9 -2 -9 4 0 5 6 12 13 15 6 3 2 3
-10 1 -12 -3 -24 -1 -28 5 -3 6 -11 7 -17 4 -6 -4 -8 -2 -5 3 8 12 -20 26 -34
17 -9 -5 -13 10 -9 31 1 6 -1 7 -5 3 -12 -11 -65 13 -65 30 0 15 -2 15 -10 2
-5 -8 -10 -10 -10 -4 0 11 -35 28 -52 25 -5 -1 -7 4 -5 10 1 6 -6 13 -15 14
-9 2 -27 12 -38 23 -12 11 -29 18 -37 15 -8 -3 -13 0 -11 8 2 9 -5 14 -19 13
-12 -1 -21 4 -20 10 1 6 -6 10 -16 10 -10 -1 -16 0 -13 3 8 8 -40 43 -58 43
-9 0 -16 5 -16 10 0 6 -6 9 -12 8 -7 -2 -12 3 -10 11 3 12 1 12 -14 0 -10 -8
-15 -9 -11 -3 6 11 -27 28 -47 25 -5 -1 -4 5 3 13 11 13 10 15 -9 11 -12 -2
-23 2 -26 10 -3 7 -12 11 -20 8 -7 -3 -17 2 -20 11 -3 9 -10 14 -14 11 -5 -3
-13 2 -18 10 -4 9 -18 17 -30 18 -12 1 -22 5 -22 10 0 4 -4 5 -10 2 -6 -3 -7
1 -4 10 4 9 3 15 -2 14 -22 -4 -35 2 -28 13 4 6 3 8 -4 5 -14 -9 -43 3 -36 14
3 5 -7 9 -21 9 -15 0 -24 4 -20 10 3 6 -1 10 -9 10 -9 0 -16 5 -16 11 0 5 -5
7 -10 4 -6 -3 -13 1 -16 9 -3 9 -10 16 -16 16 -5 0 -6 -6 -3 -12 4 -7 0 -5 -8
4 -8 10 -17 15 -20 11 -4 -3 -7 -1 -7 5 0 7 -7 12 -16 12 -8 0 -12 5 -9 10 3
6 -3 10 -14 10 -12 0 -21 5 -21 11 0 5 -5 7 -10 4 -6 -3 -13 0 -16 9 -3 8 -13
17 -21 20 -14 6 -14 4 -2 -11 8 -10 -4 -3 -26 15 -22 17 -45 32 -52 32 -7 0
-13 5 -13 10 0 6 -7 10 -16 10 -9 0 -25 9 -35 21 -9 11 -20 20 -23 20 -20 -3
-26 0 -21 9 3 6 -3 10 -14 10 -12 0 -21 5 -21 11 0 5 -4 8 -9 4 -5 -3 -16 1
-23 9 -8 7 -24 17 -36 20 -13 4 -33 18 -46 31 -13 13 -26 22 -29 19 -2 -2 -10
2 -17 11 -7 8 -21 15 -32 15 -13 0 -18 5 -15 14 4 10 0 12 -14 9 -10 -3 -19 0
-19 6 0 6 -7 11 -15 11 -8 0 -15 5 -15 11 0 5 -5 7 -10 4 -6 -3 -13 1 -16 10
-5 12 -9 13 -21 4 -8 -7 -13 -8 -12 -3 1 5 1 16 0 24 -1 13 -2 13 -11 0 -8
-13 -10 -13 -10 2 0 12 -5 15 -17 11 -11 -4 -14 -3 -9 5 6 11 -5 17 -26 13 -5
0 -8 3 -8 9 0 5 -9 10 -21 10 -11 0 -17 5 -14 10 3 6 -3 10 -15 10 -11 0 -23
7 -26 15 -4 8 -10 12 -15 9 -5 -3 -9 0 -9 5 0 6 -7 11 -15 11 -8 0 -15 5 -15
10 0 6 -3 9 -7 9 -22 -4 -35 3 -30 15 4 10 0 12 -14 9 -10 -3 -19 0 -19 6 0 6
-9 11 -21 11 -11 0 -17 5 -14 10 4 6 -5 10 -19 10 -16 0 -26 6 -26 15 0 9 -6
12 -17 8 -11 -4 -14 -3 -9 5 6 11 -5 17 -26 13 -5 0 -8 4 -8 10 0 5 -4 7 -10
4 -5 -3 -10 -1 -10 5 0 6 -4 8 -10 5 -5 -3 -10 1 -10 9 0 9 -3 15 -7 14 -17
-4 -53 14 -53 27 0 8 -6 12 -13 9 -7 -2 -23 6 -36 20 -13 13 -28 23 -35 20 -6
-2 -20 3 -31 12 -11 8 -14 12 -6 8 10 -5 12 -3 7 5 -6 9 -11 9 -24 -1 -10 -8
-13 -9 -9 -1 4 7 -1 14 -13 18 -11 4 -18 11 -15 16 3 5 -1 6 -9 3 -9 -3 -16
-2 -16 3 0 5 -16 15 -35 23 -19 7 -36 19 -39 27 -3 7 -12 10 -22 6 -12 -4 -15
-3 -10 5 5 8 0 12 -13 12 -12 0 -21 4 -21 9 0 5 -13 14 -30 21 -16 7 -30 17
-30 22 0 5 -4 6 -10 3 -5 -3 -10 -1 -10 5 0 6 -4 8 -10 5 -5 -3 -10 -1 -10 4
0 6 -7 11 -15 11 -9 0 -18 7 -22 16 -3 8 -12 13 -19 10 -8 -3 -14 -2 -14 3 0
5 -11 12 -25 15 -16 4 -23 11 -19 18 5 7 0 9 -14 6 -13 -4 -20 -1 -19 5 1 6
-3 11 -9 12 -6 0 -18 8 -28 18 -20 20 -30 22 -21 5 3 -7 -2 -3 -11 10 -9 12
-27 22 -40 22 -15 0 -24 6 -24 16 0 8 -4 13 -9 9 -6 -3 -14 3 -20 12 -5 10
-11 17 -13 15 -6 -7 -58 18 -58 27 0 6 -7 7 -17 4 -11 -4 -14 -3 -9 5 4 7 1
12 -8 12 -9 0 -16 5 -16 11 0 8 -6 7 -17 -2 -11 -10 -14 -10 -9 -1 4 7 1 12
-8 12 -9 0 -16 7 -16 15 0 8 -5 15 -11 15 -5 0 -7 5 -4 10 4 6 10 8 15 5 5 -3
11 -1 15 5 3 5 1 10 -6 10 -8 0 -6 5 5 13 9 7 18 22 18 34 1 13 7 19 15 16 8
-3 13 -2 12 3 -4 17 13 64 21 59 4 -3 11 2 14 11 4 10 2 13 -7 9 -6 -4 -1 3
13 14 14 11 21 21 16 21 -6 0 -1 7 10 16 10 8 13 13 7 9 -9 -4 -11 -1 -7 9 3
9 10 14 14 11 5 -3 11 -1 15 5 3 5 0 10 -7 10 -7 1 -3 9 11 20 13 11 19 20 15
20 -5 0 2 10 16 21 14 11 20 18 13 15 -6 -4 0 14 13 39 14 25 30 45 36 45 6 0
8 6 5 14 -3 8 1 17 10 20 9 4 13 9 10 13 -4 3 0 11 9 17 8 6 16 21 17 33 0 12
5 19 9 17 4 -3 8 2 8 11 0 10 5 13 12 9 7 -4 8 -3 4 5 -4 6 0 18 8 27 9 8 16
22 16 30 0 8 4 12 10 9 6 -3 10 2 10 12 1 22 24 55 33 46 4 -3 5 4 2 15 -2 12
3 23 11 26 9 3 12 11 8 18 -5 8 -2 9 10 5 9 -4 15 -3 12 1 -3 5 1 20 9 35 7
14 10 29 7 32 -4 4 0 5 8 3 8 -2 15 4 15 12 0 8 7 22 15 30 8 8 16 22 18 30 2
8 8 18 14 21 6 4 7 12 3 19 -5 9 -4 11 3 6 7 -4 12 -1 12 9 0 10 5 13 12 9 7
-5 9 -2 5 9 -3 9 1 18 10 21 8 4 13 12 10 20 -3 8 2 16 14 19 13 3 17 11 13
21 -3 9 -1 16 6 16 6 0 8 5 5 10 -3 6 -1 10 5 10 6 0 15 11 20 25 5 14 14 25
20 25 6 0 9 4 6 9 -3 4 3 19 15 32 11 12 17 29 15 36 -3 7 0 15 6 19 7 5 8 2
3 -6 -5 -9 -4 -11 3 -6 7 4 12 16 12 27 0 11 5 17 10 14 9 -6 14 8 11 28 0 4
4 7 10 7 5 0 7 5 4 10 -3 6 -1 10 5 10 6 0 9 4 6 9 -3 5 1 12 10 15 9 4 14 9
11 12 -3 4 3 15 13 27 11 11 17 24 14 29 -3 4 0 8 5 8 6 0 11 5 11 11 0 7 8
18 18 26 9 8 10 11 3 7 -16 -8 23 51 39 61 6 4 10 15 10 26 0 13 4 18 12 13 8
-5 9 -2 5 9 -6 16 4 22 28 17 6 -1 5 4 -2 11 -10 10 -9 15 5 26 12 10 12 12 2
8 -8 -4 -6 1 4 9 11 9 16 16 12 16 -4 0 0 7 8 16 9 8 13 20 10 26 -4 7 -2 8 4
4 7 -4 12 -1 12 8 0 9 5 16 10 16 6 0 10 7 10 15 0 8 6 15 13 15 8 0 7 4 -3
10 -13 8 -12 10 3 10 10 0 20 8 23 18 13 37 38 81 46 76 8 -5 11 9 11 48 0 10
5 14 13 11 8 -3 14 2 14 11 0 9 7 19 15 22 12 5 13 9 4 21 -7 8 -8 13 -3 12
20 -4 35 2 29 11 -3 5 1 20 10 33 8 13 12 28 8 32 -5 5 0 4 9 -3 14 -12 16
-10 14 12 -2 14 1 23 5 20 5 -3 9 2 9 11 0 8 7 18 15 21 8 4 13 10 10 14 -3 5
2 15 11 24 8 9 12 20 9 26 -3 5 1 10 10 10 9 0 14 4 11 9 -3 5 1 12 10 15 8 3
12 10 9 16 -3 5 -1 10 5 10 6 0 9 4 6 9 -4 5 -1 11 4 13 6 2 13 12 14 23 2 11
9 19 16 17 6 -1 9 2 5 8 -3 5 -1 10 5 10 6 0 8 5 4 11 -3 6 0 15 7 20 8 4 14
13 14 18 0 6 9 17 20 26 11 9 14 13 6 10 -9 -5 -8 1 4 19 9 14 21 24 25 21 5
-3 6 4 3 15 -4 14 0 20 11 20 10 0 14 4 11 10 -6 9 -1 17 31 53 6 7 10 20 8
30 -1 9 2 15 6 12 5 -3 11 4 15 15 4 11 11 17 17 14 7 -5 8 -2 4 5 -5 7 0 21
10 32 9 10 13 19 8 19 -5 0 -1 7 10 15 10 7 15 18 12 24 -4 5 3 12 13 16 11 3
18 12 15 20 -3 7 0 16 5 20 6 3 8 11 5 17 -4 7 -2 8 4 4 7 -4 12 -2 12 4 0 6
4 8 10 5 6 -3 7 1 4 9 -3 9 -1 16 6 16 6 0 9 4 5 10 -3 5 3 18 14 29 11 11 17
22 13 25 -3 3 0 6 7 6 7 0 9 5 5 12 -5 7 -2 9 8 6 11 -5 14 0 10 20 -4 19 -2
24 10 20 8 -4 15 0 16 8 1 8 3 21 4 29 1 8 7 15 14 15 7 0 14 10 16 23 2 12 9
21 15 20 7 -2 10 4 7 12 -4 8 -1 15 6 15 6 0 9 4 6 9 -3 5 1 12 10 15 8 3 13
10 10 15 -4 5 -1 15 6 23 7 7 19 25 27 40 8 15 17 25 22 23 4 -3 6 3 5 12 -2
10 6 26 16 35 11 9 19 19 19 22 -3 20 0 27 8 22 5 -3 12 1 15 10 4 10 2 13 -7
9 -6 -4 -4 0 5 8 10 8 15 17 11 20 -3 4 -1 7 6 7 7 0 9 5 6 10 -3 6 2 10 12
11 10 0 13 3 6 6 -10 3 -10 7 0 18 7 7 15 11 19 9 3 -2 4 4 1 15 -3 10 0 22 6
25 7 5 9 0 5 -11 -5 -15 -4 -16 5 -3 6 8 11 23 11 33 0 9 5 17 12 17 6 0 9 3
5 6 -9 9 16 33 28 26 6 -3 4 1 -3 10 -11 14 -11 18 0 25 7 4 20 17 28 27 13
18 13 19 0 12 -8 -4 -7 -1 3 7 10 8 16 21 15 28 -2 7 4 13 12 14 8 0 14 8 14
18 -1 9 2 17 7 17 5 0 9 6 9 14 0 8 7 16 15 19 8 4 12 15 10 26 -3 15 0 18 12
14 13 -5 15 -2 10 16 -4 18 -3 20 9 10 12 -10 13 -9 8 4 -3 9 3 24 14 35 15
15 17 23 9 32 -9 8 -7 9 7 4 13 -5 17 -4 13 3 -4 6 0 16 9 23 8 7 13 19 10 26
-3 8 0 13 7 11 7 -1 11 4 9 11 -1 6 6 12 15 13 13 0 14 2 4 6 -10 4 -8 9 10
20 15 9 17 12 5 8 -15 -4 -17 -3 -8 8 7 8 9 16 6 19 -3 3 0 9 7 14 8 4 10 3 5
-4 -4 -7 -2 -12 3 -12 6 0 11 9 11 20 0 11 7 20 15 20 9 0 12 6 9 15 -4 8 -1
15 5 15 6 0 11 9 11 21 0 11 4 18 8 15 5 -3 17 14 26 37 10 23 31 59 47 79 16
20 29 42 29 49 0 6 8 19 18 28 9 9 18 23 20 31 2 8 7 16 12 18 5 2 6 10 3 18
-3 9 0 14 8 12 8 -2 13 4 11 14 -1 9 3 20 9 24 8 5 9 3 4 -6 -5 -9 -4 -11 4
-6 6 4 9 11 6 16 -3 5 2 16 11 24 8 9 12 16 8 16 -4 0 1 7 12 16 10 8 13 12 6
9 -11 -6 -11 -3 -1 13 7 12 16 19 20 17 4 -3 9 9 13 25 3 18 12 30 21 30 10 0
13 5 9 12 -4 6 1 17 11 25 13 9 15 13 5 13 -9 0 -5 6 8 16 13 9 21 22 18 30
-3 8 1 14 9 14 8 0 12 8 10 19 -2 12 2 18 13 17 10 0 16 5 14 14 -2 8 4 20 13
26 9 7 17 21 18 33 1 11 7 23 15 26 8 3 12 12 8 20 -3 8 0 14 7 12 7 -1 11 6
11 16 -1 9 4 17 12 17 7 0 11 8 9 19 -3 15 1 18 12 14 13 -5 15 -2 11 15 -4
13 -2 20 6 19 6 -1 11 5 11 13 0 8 8 18 19 23 16 6 16 10 5 24 -10 12 -10 15
-1 9 8 -5 15 2 22 18 5 14 14 26 20 26 6 0 8 5 5 11 -4 5 3 19 16 30 12 10 19
19 16 19 -4 0 3 18 14 40 12 22 25 40 31 40 5 0 7 4 4 9 -3 4 3 16 14 26 11
10 20 27 20 38 0 11 3 17 7 13 4 -3 15 12 25 34 10 22 23 40 28 40 5 0 7 7 4
15 -4 9 0 15 9 15 11 0 15 7 12 20 -2 11 0 18 6 15 8 -6 13 8 10 28 -1 5 3 6
8 3 10 -7 25 22 22 42 -1 7 4 11 11 10 7 -2 12 5 12 15 -1 10 5 17 15 17 12 0
13 2 3 9 -10 6 -9 10 7 14 12 3 21 11 21 19 0 10 -3 9 -10 -2 -5 -8 -10 -10
-10 -4 0 16 25 35 34 27 4 -4 4 0 0 10 -3 10 -1 17 6 17 6 0 9 4 6 9 -3 4 3
19 15 32 11 12 17 28 15 35 -3 8 0 11 8 8 11 -4 27 25 25 44 0 2 7 9 15 15 9
7 17 22 19 34 2 12 7 26 12 30 4 5 5 2 1 -4 -4 -7 -2 -13 3 -13 6 0 11 11 11
24 0 13 7 27 16 30 8 3 12 10 9 16 -3 5 -1 10 5 10 6 0 16 13 21 30 6 16 15
27 20 24 5 -3 8 -2 7 3 -5 16 37 93 49 88 7 -2 10 2 7 9 -3 8 0 17 5 21 6 3 9
11 6 16 -4 5 -1 9 4 9 6 0 19 18 28 40 10 22 21 40 26 40 4 0 5 5 2 10 -3 6 2
10 12 10 15 0 16 2 3 10 -13 8 -13 10 2 10 12 0 16 6 13 21 -3 15 0 19 11 15
8 -3 13 -2 9 3 -3 5 1 16 9 24 8 8 12 17 9 21 -3 3 1 8 10 12 9 3 14 11 11 19
-3 7 2 15 11 19 9 3 14 10 10 15 -3 6 3 14 12 20 10 6 15 11 10 11 -4 0 0 11
9 25 9 14 20 23 24 20 5 -3 6 4 3 15 -3 11 -1 20 3 20 5 0 15 9 22 21 8 12 9
18 3 14 -6 -3 -11 -1 -11 4 0 6 9 11 20 11 13 0 18 5 14 15 -4 9 1 18 11 21 9
4 14 13 11 20 -3 8 -1 14 5 14 6 0 19 20 30 45 11 25 24 45 29 45 6 0 9 6 7
13 -1 6 3 11 10 10 8 -2 10 4 6 14 -4 10 -2 14 4 10 7 -4 10 0 9 10 -2 10 6
26 16 35 12 10 17 22 12 29 -4 7 -3 9 2 6 6 -3 16 3 23 15 10 16 10 19 -1 13
-7 -3 -5 0 5 8 9 8 17 22 17 31 0 10 4 15 9 12 5 -3 12 6 15 19 4 16 11 23 18
19 8 -5 9 -2 5 9 -3 10 -2 17 4 17 6 0 7 5 4 10 -3 6 -2 10 4 10 10 0 27 38
23 52 -1 4 4 5 12 2 16 -6 31 12 17 21 -6 3 -2 14 10 26 11 11 17 25 13 31 -5
7 -3 8 6 3 10 -6 12 -4 6 10 -6 16 -4 16 11 4 9 -8 14 -9 10 -2 -4 6 -3 14 3
18 5 3 10 12 10 18 0 7 -4 6 -10 -3 -6 -9 -10 -10 -10 -3 0 6 8 18 18 25 21
16 52 55 35 44 -9 -5 -11 -2 -7 9 4 9 12 14 19 11 8 -3 12 2 11 12 -2 9 6 25
17 35 14 12 16 17 6 18 -10 0 -11 2 -1 6 6 2 9 10 5 16 -4 7 2 5 13 -3 10 -8
16 -10 12 -6 -4 5 -2 16 5 24 10 13 9 15 -3 8 -8 -4 -6 1 6 11 11 10 20 28 19
40 -1 14 3 19 12 16 8 -3 13 0 11 8 -2 8 3 13 10 11 8 -1 11 2 8 6 -7 11 27
83 40 85 5 1 8 8 6 15 -2 7 4 15 12 18 9 3 12 12 9 21 -4 10 -2 14 4 10 6 -4
16 0 23 8 7 8 9 15 5 15 -4 0 -2 7 5 15 10 12 10 15 -1 15 -8 1 -2 7 12 15 15
8 29 22 33 30 3 9 2 13 -4 10 -6 -3 -7 1 -4 9 3 9 10 14 14 11 13 -8 19 22 7
35 -9 10 -9 11 1 6 17 -10 44 18 31 33 -5 6 -6 9 -3 6 11 -7 44 36 37 48 -4 6
0 8 9 4 12 -4 14 -1 10 15 -4 16 -2 19 8 13 10 -6 12 -4 7 8 -3 10 -2 17 4 17
6 0 7 5 4 10 -3 6 -2 10 4 10 6 0 19 19 30 43 11 23 21 38 21 32 1 -5 6 1 12
15 6 14 10 28 10 33 -1 4 6 7 16 7 14 0 15 2 2 10 -11 7 -11 10 -2 10 8 0 10
5 6 13 -6 9 -4 9 8 -1 13 -10 16 -10 15 0 -1 32 4 49 13 43 6 -3 10 3 10 14 0
11 6 24 14 28 14 8 16 12 16 33 0 6 8 10 18 10 14 0 15 2 2 10 -12 7 -12 10
-1 10 8 0 11 6 7 16 -5 14 -4 15 8 5 12 -10 14 -8 12 13 -2 15 3 27 11 31 9 3
13 12 9 21 -3 8 -2 13 2 10 5 -3 16 4 25 15 9 10 12 19 7 19 -6 0 -2 9 8 19
36 41 43 52 37 61 -3 6 2 10 12 10 15 0 16 2 3 10 -13 8 -12 10 3 10 10 0 16
4 12 9 -3 5 -1 12 5 16 6 4 7 11 4 17 -4 6 -3 8 3 5 9 -6 30 26 31 47 0 5 7
13 16 18 8 5 13 15 9 24 -3 9 0 14 8 12 8 -2 13 4 13 15 -1 10 5 17 15 17 14
0 14 2 1 10 -13 8 -12 10 3 10 10 0 15 5 12 10 -3 6 -1 10 6 10 7 0 9 3 6 7
-4 3 1 12 11 20 11 10 12 12 2 8 -10 -4 -9 -2 2 8 10 8 15 17 11 20 -3 4 -1 7
5 7 7 0 12 7 12 16 0 9 5 12 12 8 6 -4 8 -3 5 3 -3 5 5 26 18 46 14 20 25 39
25 42 0 4 9 19 19 33 10 15 20 32 22 37 2 6 7 9 12 7 4 -1 7 7 7 18 0 11 7 23
15 26 8 4 12 10 9 15 -3 5 2 12 10 15 9 3 13 10 10 16 -3 5 3 19 14 31 10 12
25 37 33 55 8 19 19 30 27 27 7 -3 10 -1 7 5 -6 9 13 50 29 61 5 4 6 14 3 23
-4 9 -3 15 1 15 21 -3 31 3 26 16 -4 8 -2 15 3 15 4 0 14 9 21 21 11 17 11 20
0 14 -7 -3 -4 1 7 10 11 9 21 20 21 25 1 6 2 15 3 21 0 5 6 7 12 3 8 -5 10 1
7 19 -3 15 -1 24 4 21 11 -7 38 27 32 38 -3 5 -1 8 5 8 6 0 7 8 4 17 -5 12 -2
15 10 10 11 -4 14 -2 10 9 -3 7 0 14 7 14 6 0 8 5 5 10 -3 6 1 10 11 10 14 0
15 2 3 17 -12 15 -12 16 4 10 15 -6 17 -3 12 13 -5 15 -3 18 9 14 12 -5 15 -2
10 10 -3 9 -1 16 5 16 6 0 11 9 11 21 0 15 5 19 15 15 13 -5 14 -2 4 15 -6 12
-7 19 -2 17 4 -3 16 3 25 13 12 12 13 19 5 23 -7 2 -4 5 6 5 10 1 15 6 12 11
-3 6 -1 10 5 10 7 0 9 7 6 16 -4 10 -2 13 6 8 8 -5 9 -2 5 9 -4 11 -1 17 9 17
8 0 13 4 10 9 -3 4 3 16 14 26 11 10 20 26 20 37 0 10 7 18 17 18 9 0 13 3 10
7 -4 3 -2 12 4 20 6 7 8 13 3 13 -4 0 1 7 12 16 10 8 12 13 4 9 -8 -4 -5 3 8
14 13 11 24 29 25 40 0 11 4 19 7 18 3 -1 7 3 8 8 2 6 9 19 15 30 6 11 10 23
9 27 -1 4 5 5 13 2 10 -4 13 0 10 15 -2 12 0 19 4 16 5 -2 14 9 21 25 7 18 17
27 24 23 6 -4 5 1 -3 10 -12 15 -11 17 4 17 11 0 15 5 11 15 -3 8 0 14 6 12 5
-1 12 6 13 17 2 10 9 24 16 30 9 8 10 8 4 -3 -5 -10 -4 -12 4 -7 6 4 9 12 5
17 -3 6 2 17 12 25 11 9 12 12 4 8 -8 -4 -5 4 8 18 12 13 22 28 22 33 0 4 11
23 26 42 14 18 23 37 20 42 -3 5 1 12 10 15 9 3 12 11 8 18 -5 8 -2 9 11 4 15
-5 16 -4 5 9 -10 12 -10 15 4 15 10 0 15 4 11 10 -3 5 3 18 15 30 11 11 20 22
20 25 0 3 0 10 0 16 0 5 5 7 12 3 8 -5 9 -2 5 9 -4 10 -1 17 5 17 6 0 8 3 5 7
-4 3 0 11 8 17 7 6 15 18 17 26 2 8 11 23 21 34 9 11 17 26 17 33 0 7 5 13 12
13 6 0 9 3 5 6 -9 9 16 33 28 26 6 -2 5 1 -1 7 -9 10 -6 18 12 36 14 15 21 30
18 40 -4 10 -2 15 7 13 8 -2 13 3 12 10 -2 6 4 12 12 12 8 0 15 5 15 11 0 5
-4 7 -10 4 -6 -3 -7 1 -4 9 3 9 10 14 14 11 9 -5 26 33 22 48 -1 4 5 10 13 13
8 4 15 13 15 21 0 10 6 13 16 9 14 -5 15 -4 4 9 -10 12 -9 16 4 21 9 3 16 13
16 21 0 8 4 11 10 8 5 -3 7 0 4 9 -3 8 4 24 15 35 13 13 16 21 8 25 -7 2 -4 5
6 5 10 1 15 6 12 11 -3 6 -1 10 6 10 7 0 10 3 6 6 -3 4 1 13 9 21 8 8 12 19 8
24 -3 5 0 8 8 7 8 -2 12 4 9 17 -3 20 -3 20 18 1 22 -20 22 -20 15 0z m4026
-6666 c0 -5 -2 -10 -4 -10 -3 0 -8 5 -11 10 -3 6 -1 10 4 10 6 0 11 -4 11 -10z
m-10780 -5942 c0 -4 11 -8 24 -8 14 0 32 -10 40 -22 9 -12 16 -18 16 -13 0 6
4 5 8 -1 11 -18 89 -54 97 -46 5 4 5 1 1 -5 -4 -8 -1 -13 8 -13 9 0 16 -4 16
-10 0 -5 7 -10 15 -10 7 0 19 -8 24 -17 7 -12 11 -13 11 -5 0 10 4 10 16 -2 8
-9 20 -16 25 -16 6 0 7 -6 3 -12 -4 -7 -4 -10 1 -6 4 4 14 3 22 -3 7 -6 13 -8
13 -3 0 5 4 4 8 -3 4 -6 14 -13 22 -15 14 -3 29 -13 54 -35 8 -7 16 -9 20 -6
3 4 6 1 6 -6 0 -7 5 -9 10 -6 6 3 10 1 10 -5 0 -6 5 -8 12 -4 7 5 9 2 5 -9 -4
-12 -2 -14 10 -10 9 4 21 -1 29 -12 8 -10 14 -15 14 -11 0 5 9 -2 20 -15 12
-15 19 -19 20 -10 0 9 7 6 20 -9 11 -13 20 -19 20 -15 0 5 7 0 16 -11 8 -10
13 -13 9 -6 -3 6 -1 12 4 12 6 0 11 -4 11 -10 0 -5 7 -10 16 -10 8 0 12 -4 9
-10 -4 -6 6 -10 22 -10 19 0 24 -3 15 -9 -10 -6 -5 -10 17 -14 20 -4 31 -13
31 -23 0 -14 3 -14 15 -4 13 11 14 10 9 -3 -4 -12 0 -15 20 -13 14 2 24 0 23
-3 -1 -3 0 -6 3 -6 13 0 37 -31 32 -40 -3 -5 3 -3 13 5 17 14 18 13 12 -2 -4
-13 -1 -16 14 -13 12 3 19 -2 19 -12 0 -9 6 -13 15 -9 8 3 15 1 15 -4 0 -6 5
-10 11 -10 6 0 17 -7 26 -15 8 -8 19 -13 24 -10 5 4 9 -1 9 -10 0 -9 5 -13 10
-10 6 3 10 1 10 -6 0 -8 4 -8 15 1 13 11 14 10 9 -5 -6 -14 -3 -16 16 -10 14
4 20 3 16 -3 -3 -5 2 -16 11 -23 14 -12 16 -12 9 1 -4 8 1 6 11 -6 10 -11 27
-20 36 -18 15 2 16 0 5 -13 -12 -15 -10 -15 11 -4 15 8 21 9 17 2 -4 -6 -2
-11 4 -11 6 0 8 -5 4 -11 -4 -7 2 -7 17 1 20 10 22 10 12 -1 -7 -7 -13 -18
-13 -23 0 -6 5 -4 10 4 9 13 12 13 24 -2 7 -10 16 -15 19 -11 4 3 7 1 7 -6 0
-7 5 -9 10 -6 6 3 10 1 10 -5 0 -6 5 -8 10 -5 6 3 10 1 10 -4 0 -6 5 -11 12
-11 6 0 23 -10 36 -22 14 -13 22 -16 18 -8 -6 11 -4 11 6 -1 7 -9 23 -19 36
-23 12 -4 19 -12 16 -18 -4 -6 -1 -9 7 -6 8 3 20 -2 27 -11 11 -13 12 -13 6
-1 -4 8 4 5 18 -7 13 -13 33 -23 43 -23 10 0 15 -3 12 -7 -10 -9 43 -34 56
-26 6 4 7 1 3 -6 -5 -8 0 -14 13 -18 12 -3 21 -9 21 -14 0 -5 6 -8 13 -7 6 2
11 -2 10 -8 -1 -6 9 -10 23 -8 19 2 24 -1 20 -12 -3 -7 -2 -13 2 -12 4 1 17
-3 28 -10 12 -6 24 -8 28 -5 3 3 6 -1 6 -11 0 -13 5 -16 21 -11 15 5 19 4 15
-4 -7 -11 5 -15 31 -12 8 1 10 -5 7 -14 -4 -9 -3 -15 2 -14 14 4 64 -23 64
-33 0 -5 5 -6 10 -3 6 3 13 0 16 -9 3 -8 12 -12 20 -9 8 3 14 0 14 -7 0 -6 4
-9 9 -6 5 3 11 -1 15 -9 3 -8 10 -15 16 -15 6 0 18 -7 27 -15 8 -8 19 -13 24
-10 5 4 9 1 9 -5 0 -6 5 -8 10 -5 6 3 10 2 10 -3 0 -5 21 -20 48 -33 46 -24
59 -32 87 -56 7 -7 16 -13 20 -13 3 0 3 6 0 13 -4 6 2 2 13 -10 11 -12 22 -19
26 -16 3 4 6 1 6 -5 0 -7 7 -12 16 -12 8 0 13 -4 9 -9 -3 -6 4 -8 15 -6 13 2
20 -1 20 -11 0 -8 5 -12 10 -9 6 3 10 0 10 -7 0 -9 3 -9 10 2 8 13 10 12 10
-2 0 -11 8 -18 21 -18 11 0 17 -4 14 -10 -5 -9 16 -15 38 -11 5 1 6 -3 2 -9
-3 -6 3 -10 15 -10 12 0 19 -4 16 -8 -2 -4 4 -14 16 -21 16 -10 19 -10 12 1
-6 10 -5 11 8 1 8 -7 18 -10 22 -6 4 4 4 -1 0 -10 -3 -10 -3 -17 2 -16 20 3
35 -2 30 -10 -3 -5 2 -8 12 -7 9 0 16 -4 15 -10 -1 -7 9 -11 26 -10 20 1 27
-2 24 -11 -3 -7 2 -13 11 -13 9 0 16 -6 16 -12 0 -9 4 -8 10 2 8 12 10 12 10
-5 0 -17 2 -17 10 -5 8 13 10 12 10 -2 0 -10 7 -18 16 -18 8 0 12 -5 9 -11 -4
-6 0 -9 11 -7 11 2 18 -2 17 -9 -2 -7 3 -10 11 -7 7 3 20 -2 29 -10 9 -9 23
-16 32 -16 9 0 13 -5 9 -11 -4 -7 -1 -10 7 -7 13 4 21 0 54 -30 8 -7 24 -14
34 -15 11 0 17 -5 15 -9 -5 -7 10 -12 29 -9 4 0 7 -6 7 -15 0 -8 5 -12 10 -9
6 3 10 1 10 -5 0 -6 5 -8 10 -5 6 3 10 1 10 -5 0 -6 5 -8 10 -5 6 3 10 1 10
-5 0 -6 4 -9 9 -6 5 3 12 -1 15 -10 4 -9 13 -14 21 -10 9 3 15 0 15 -10 0 -8
5 -12 10 -9 6 3 10 1 10 -5 0 -6 5 -8 10 -5 6 3 10 1 10 -4 0 -6 9 -11 20 -11
11 0 20 -6 20 -14 0 -10 8 -13 21 -11 12 3 19 2 16 -2 -9 -8 24 -32 43 -33 9
0 22 -9 30 -20 10 -14 16 -16 22 -7 5 8 8 6 8 -6 0 -10 5 -15 10 -12 6 3 10 1
10 -5 0 -6 5 -8 10 -5 6 3 13 -1 16 -9 3 -9 13 -16 21 -16 8 0 11 5 7 12 -4 7
-3 8 5 4 6 -4 9 -12 5 -17 -3 -6 3 -13 15 -16 11 -3 18 -10 14 -16 -4 -6 -1
-7 7 -2 8 5 18 2 26 -9 7 -10 15 -17 18 -17 30 4 38 0 27 -13 -9 -11 -6 -12
16 -8 22 4 25 2 20 -12 -4 -10 -3 -15 4 -11 5 4 17 1 26 -7 14 -11 16 -11 9 2
-4 8 1 5 10 -7 9 -13 25 -23 36 -23 13 0 18 -5 15 -14 -4 -10 0 -12 14 -9 11
3 19 0 19 -6 0 -7 6 -11 14 -9 7 2 23 -8 36 -22 12 -14 19 -19 15 -12 -10 19
2 14 30 -14 14 -14 30 -22 35 -19 6 3 10 1 10 -4 0 -6 7 -11 15 -11 7 0 18 -8
24 -17 5 -10 11 -16 13 -14 6 8 48 -11 43 -20 -4 -5 3 -9 14 -9 12 0 21 -5 21
-11 0 -5 5 -7 10 -4 6 3 10 2 10 -4 0 -6 7 -7 17 -4 9 4 14 2 10 -3 -3 -6 -2
-16 4 -24 6 -11 9 -11 9 -2 0 10 4 10 19 0 11 -7 17 -17 13 -23 -3 -5 3 -3 13
5 11 9 16 10 11 3 -7 -12 5 -18 27 -14 5 1 6 -3 2 -9 -3 -5 1 -10 10 -10 10 0
13 -5 9 -12 -5 -8 -2 -9 9 -5 10 3 17 2 17 -4 0 -6 5 -7 10 -4 6 3 10 -1 10
-10 0 -10 5 -13 12 -9 6 4 17 -1 25 -11 7 -11 13 -15 13 -10 0 4 9 0 20 -10
11 -10 20 -15 20 -11 0 4 7 0 16 -9 9 -9 24 -13 32 -10 9 3 13 3 9 -1 -7 -7
20 -31 36 -32 4 -1 15 -8 23 -17 9 -8 20 -13 25 -10 5 4 9 -1 9 -9 0 -9 3 -15
8 -14 13 4 52 -13 52 -23 0 -5 7 -9 15 -9 8 0 15 -5 15 -11 0 -5 5 -7 10 -4 6
3 13 -1 16 -10 5 -12 9 -13 14 -5 5 9 10 6 15 -9 3 -12 11 -18 16 -15 6 3 19
-3 30 -15 11 -12 24 -19 29 -16 4 3 10 0 12 -5 2 -6 13 -12 25 -12 14 -2 20
-8 18 -20 -3 -15 -1 -16 17 -7 11 6 18 7 15 1 -6 -9 41 -37 56 -34 4 1 10 -5
13 -13 3 -8 10 -12 15 -9 5 3 9 -3 9 -13 0 -14 2 -15 9 -5 6 11 10 10 15 -3 3
-10 12 -15 21 -11 8 3 21 -4 30 -17 8 -12 15 -17 15 -12 0 5 7 0 16 -11 8 -10
12 -12 8 -4 -7 12 -5 13 8 3 8 -7 18 -10 22 -6 4 4 4 0 1 -9 -5 -13 -2 -16 14
-13 12 2 19 0 16 -6 -4 -5 0 -9 8 -9 8 0 20 -7 27 -15 7 -8 20 -15 30 -15 10
0 25 -10 34 -22 9 -13 14 -16 11 -8 -4 10 -2 9 8 -2 8 -10 17 -15 20 -12 3 3
10 -4 17 -15 6 -12 15 -19 20 -16 5 3 12 0 15 -6 4 -5 13 -8 19 -6 7 3 18 -4
25 -14 6 -11 16 -17 21 -14 6 3 10 1 10 -4 0 -6 10 -11 23 -11 18 0 19 -2 7
-11 -12 -9 -11 -10 8 -6 12 3 20 1 16 -4 -4 -8 16 -14 38 -10 4 0 5 -6 1 -15
-3 -8 -2 -14 3 -12 5 1 23 -5 40 -15 17 -9 35 -13 39 -9 5 4 5 1 1 -5 -4 -8
-1 -13 8 -13 9 0 16 -5 16 -11 0 -5 4 -8 9 -5 4 3 21 -6 37 -19 16 -14 35 -23
42 -20 7 3 10 1 7 -4 -3 -5 4 -12 15 -16 11 -4 18 -11 14 -16 -3 -5 -2 -9 3
-8 28 5 53 -3 53 -17 0 -8 5 -12 10 -9 6 3 10 1 10 -4 0 -6 3 -10 8 -10 19 3
33 -2 27 -11 -3 -5 2 -10 11 -10 10 0 29 -10 42 -22 14 -13 21 -16 16 -8 -6
11 0 10 21 -4 17 -11 34 -25 38 -33 4 -7 15 -13 22 -13 8 0 15 -5 15 -11 0 -5
4 -8 9 -5 4 3 19 -3 31 -14 12 -11 27 -17 31 -14 5 3 9 0 9 -7 0 -7 3 -10 6
-6 3 3 16 -5 28 -17 11 -13 27 -21 34 -19 6 3 12 1 12 -5 0 -13 49 -33 62 -26
6 4 8 2 5 -3 -4 -6 1 -17 10 -24 14 -12 16 -12 9 1 -4 9 -2 8 7 -2 8 -10 17
-15 20 -11 4 3 7 1 7 -5 0 -7 7 -12 16 -12 8 0 12 -5 9 -11 -4 -6 0 -9 11 -7
12 2 18 -2 16 -10 -1 -8 2 -11 7 -8 14 9 42 -5 34 -18 -3 -6 -3 -8 2 -4 4 4
14 3 22 -3 7 -6 13 -8 13 -4 0 5 8 -1 18 -11 9 -10 24 -20 32 -22 8 -2 18 -8
21 -14 4 -6 11 -8 17 -4 6 3 14 1 18 -5 5 -8 3 -9 -6 -4 -9 5 -11 4 -6 -3 4
-7 16 -12 27 -12 11 0 18 -4 14 -9 -3 -6 4 -8 15 -6 13 2 20 -1 20 -11 0 -8 6
-13 13 -12 6 2 11 -2 10 -7 -1 -6 8 -12 19 -12 12 -1 24 -7 28 -14 4 -6 13 -8
19 -5 7 5 10 2 9 -6 -2 -7 7 -14 20 -16 12 -2 22 -10 22 -17 0 -9 6 -12 15 -9
8 4 15 1 15 -6 0 -7 7 -10 15 -6 9 3 18 -1 22 -10 3 -8 12 -13 20 -9 11 4 13
1 9 -12 -4 -10 -4 -14 0 -10 4 4 13 2 21 -4 10 -9 13 -8 13 2 0 11 2 11 10 -1
9 -13 10 -13 11 0 1 8 1 19 0 24 -1 5 4 5 11 -1 9 -8 16 -7 25 2 6 7 10 15 7
18 -3 2 7 3 21 2 14 -2 23 1 20 5 -3 5 4 11 15 15 11 4 18 10 15 15 -3 4 5 6
17 2 14 -3 19 -2 14 6 -5 8 0 12 13 12 12 0 21 7 21 16 0 9 5 12 12 8 6 -4 16
-1 22 7 6 8 18 14 26 14 8 0 14 6 12 14 -2 8 3 11 12 8 9 -4 19 1 24 9 5 9 13
17 18 17 5 1 8 5 7 8 -1 3 9 5 23 3 22 -2 23 0 12 14 -8 9 -8 13 -1 9 16 -10
44 3 36 17 -4 6 0 5 9 -2 14 -11 17 -10 23 7 4 13 13 18 26 16 14 -3 19 0 16
9 -4 9 1 13 11 12 9 -2 24 6 34 16 9 11 25 20 36 21 12 0 19 4 16 8 -2 4 4 10
14 15 9 4 19 8 22 9 3 2 15 6 28 10 12 4 22 12 22 18 0 6 3 8 6 4 9 -9 44 26
37 37 -4 6 0 6 8 -1 12 -10 18 -8 29 7 8 11 20 20 27 20 7 0 21 9 30 19 9 11
22 17 29 14 8 -3 14 0 14 7 0 6 5 8 10 5 6 -3 10 2 10 12 0 15 2 16 10 3 8
-13 10 -13 10 1 0 11 8 15 26 13 21 -2 23 0 13 13 -11 12 -10 14 2 13 26 -4
40 0 34 10 -5 9 15 15 38 11 4 0 7 3 7 9 0 13 56 41 65 32 5 -4 5 -1 1 6 -4 7
-1 12 8 12 8 0 16 5 18 10 2 6 13 12 25 13 12 0 21 6 20 12 -1 5 6 9 17 7 11
-2 15 1 11 7 -6 10 8 16 29 12 5 -1 6 4 3 12 -3 7 1 14 9 14 7 0 11 -5 8 -11
-3 -6 4 0 16 14 12 14 18 18 14 10 -5 -10 -1 -9 14 3 12 12 26 16 34 11 11 -6
11 -5 0 8 -10 13 -9 15 13 13 14 -2 23 1 20 6 -3 4 6 11 21 15 16 4 22 9 14
14 -8 5 -5 9 9 13 12 3 19 1 15 -4 -3 -5 2 -6 11 -3 13 5 13 9 3 22 -8 10 -9
13 -1 9 15 -10 66 10 58 23 -3 5 0 7 8 4 8 -3 17 2 21 12 5 14 9 14 23 3 13
-11 15 -11 9 -1 -5 9 -1 15 13 19 12 3 21 9 21 13 0 8 39 23 54 21 5 -1 6 5 3
13 -4 11 0 13 19 10 16 -3 23 0 22 8 -2 7 5 12 15 12 9 -1 17 4 17 12 0 8 6
11 17 7 11 -4 14 -3 9 5 -5 8 0 12 13 12 12 0 21 4 21 8 0 13 50 33 62 25 7
-4 9 0 5 10 -6 16 9 23 38 17 5 -1 7 2 2 6 -9 9 43 45 55 38 4 -3 8 2 8 11 0
13 4 14 20 5 16 -9 18 -8 14 5 -4 9 -3 15 2 14 14 -3 44 12 40 20 -3 4 5 8 17
8 11 1 25 9 29 18 5 8 13 13 19 10 5 -4 9 -1 9 6 0 7 3 9 7 6 3 -4 12 1 20 11
8 9 12 11 8 5 -4 -8 -1 -11 9 -7 9 3 14 11 13 17 -1 7 6 11 17 9 11 -2 15 1
11 7 -3 6 1 11 10 11 9 0 13 5 9 11 -4 8 0 8 15 0 17 -9 21 -9 19 1 -2 7 3 12
10 10 6 -1 12 6 12 15 0 15 2 16 10 3 8 -13 10 -12 10 3 0 9 3 16 8 16 21 -4
32 3 32 19 0 14 2 15 10 2 6 -10 10 -11 10 -2 0 6 7 12 15 12 8 0 15 5 15 12
0 6 3 8 6 5 4 -4 15 3 25 15 12 13 19 16 19 8 0 -9 5 -7 13 5 8 10 19 15 26
11 7 -5 10 -2 9 6 -2 7 3 12 10 10 6 -1 12 3 12 9 0 5 5 7 10 4 6 -3 10 -1 10
5 0 6 4 9 9 6 5 -3 12 1 15 10 4 9 9 14 13 11 3 -4 12 1 20 11 10 11 12 12 8
2 -4 -10 -2 -9 8 2 8 10 17 15 20 11 4 -3 7 -1 7 5 0 7 7 12 15 12 7 0 19 8
24 18 8 13 11 14 11 2 1 -8 5 -5 11 9 8 20 11 22 26 10 12 -10 14 -10 9 -1 -7
11 5 17 28 13 5 -1 4 5 -3 13 -11 13 -10 15 8 11 11 -2 27 3 35 11 8 8 20 14
26 14 6 0 13 6 16 14 3 8 11 13 19 10 7 -3 15 2 18 10 4 9 14 16 22 16 10 0
13 5 9 12 -4 6 -3 8 4 5 12 -8 93 33 86 44 -2 4 5 6 16 4 11 -2 18 0 15 5 -3
5 6 12 20 16 14 3 25 11 25 17 0 6 3 8 6 4 4 -3 13 1 21 9 8 8 19 11 25 8 7
-5 8 -2 3 6 -6 10 -4 12 8 7 11 -4 17 -1 17 8 0 7 5 17 12 21 7 5 9 2 4 -7 -4
-8 -1 -6 7 4 16 20 31 23 21 5 -3 -7 7 2 23 20 21 23 32 29 40 21 8 -8 13 -7
18 2 6 8 4 10 -6 4 -10 -6 -11 -5 -3 4 6 7 20 13 32 14 11 0 20 6 19 12 -1 5
4 9 11 7 6 -1 12 2 12 8 0 5 7 10 15 10 8 0 15 5 15 11 0 6 7 9 15 5 8 -3 15
-1 15 5 0 6 6 7 13 3 8 -6 8 -3 -1 9 -12 14 -11 15 13 11 17 -3 24 -1 20 6 -3
6 3 10 15 10 12 0 18 5 15 10 -3 6 3 10 15 10 11 0 23 7 26 15 4 8 10 12 15 9
12 -7 60 31 51 41 -4 3 -2 5 3 4 17 -5 59 13 77 33 12 14 17 15 21 6 3 -8 6
-6 6 5 1 10 6 15 11 12 6 -3 10 -1 10 5 0 7 7 9 16 6 8 -3 13 -2 10 3 -3 5 8
14 25 20 17 6 28 15 25 20 -3 5 2 8 11 6 10 -1 26 7 36 19 10 11 16 14 12 6
-4 -10 -2 -9 8 2 8 10 17 15 20 11 4 -3 7 -1 7 6 0 7 5 9 10 6 6 -3 10 -1 10
5 0 6 5 8 12 4 7 -5 9 -2 5 8 -4 12 -1 14 15 10 17 -4 20 -2 14 13 -5 15 -4
16 9 5 11 -9 15 -9 15 -1 0 7 5 9 10 6 6 -3 10 -1 10 4 0 6 7 11 16 11 8 0 12
5 9 10 -3 6 3 10 13 10 11 0 22 7 26 15 3 8 12 12 21 9 8 -4 17 1 21 10 3 9
10 13 15 10 5 -3 12 1 15 10 3 8 14 13 26 11 15 -3 17 -1 9 9 -9 11 -6 13 14
10 20 -2 24 1 16 10 -8 9 -3 12 20 10 22 -2 27 1 20 10 -7 8 -4 12 12 13 12 1
23 7 25 13 2 5 8 8 13 4 5 -3 9 -1 9 4 0 5 21 20 48 33 26 13 49 27 52 31 3 4
23 14 43 23 23 10 35 20 31 27 -4 6 -3 8 4 4 6 -3 16 -1 24 6 7 7 20 13 28 13
8 0 14 6 12 13 -2 10 4 11 19 7 15 -5 19 -4 15 4 -4 6 0 11 8 11 9 0 16 4 16
8 0 5 16 14 35 22 19 8 35 18 35 22 0 5 5 6 12 2 8 -5 9 -2 5 9 -5 14 -2 15
20 6 23 -9 25 -8 13 6 -7 9 -9 15 -4 14 20 -3 35 2 29 10 -3 6 3 8 13 6 10 -2
25 5 33 16 7 10 19 19 26 19 7 0 13 5 13 10 0 6 3 9 8 9 21 -4 43 2 38 10 -3
5 5 12 19 15 14 4 25 11 25 17 0 6 5 7 10 4 6 -3 10 -1 10 5 0 6 5 8 10 5 6
-3 10 -1 10 5 0 7 7 9 16 6 8 -3 13 -2 10 3 -3 5 4 11 15 14 14 4 18 10 13 19
-4 7 -4 10 1 6 4 -4 15 -2 23 5 13 10 14 9 8 -3 -4 -8 2 -4 14 10 12 14 19 18
15 10 -5 -12 -4 -12 7 1 7 9 19 14 27 11 8 -3 11 0 8 6 -6 9 27 26 46 23 4 -1
7 7 7 16 0 15 2 16 10 3 9 -13 10 -13 11 0 1 8 1 18 1 21 -1 3 5 6 13 6 8 0
11 -5 8 -11 -4 -6 1 -5 10 3 9 7 15 17 12 21 -3 5 4 6 14 3 13 -3 24 2 32 15
7 12 19 18 28 14 10 -4 13 -1 9 10 -5 11 0 15 15 14 13 -1 21 4 19 12 -1 8 2
11 7 8 13 -8 42 4 35 15 -3 5 2 6 10 3 9 -3 20 3 27 14 7 11 18 18 25 15 6 -2
15 1 20 8 5 8 3 10 -6 4 -9 -5 -11 -4 -6 4 6 9 11 9 21 1 10 -8 15 -6 20 10 4
13 12 19 21 16 8 -3 14 -1 14 5 0 6 7 9 14 6 9 -4 17 2 21 14 4 10 11 17 16
14 5 -4 9 2 9 12 0 15 2 16 10 3 8 -12 10 -12 16 3 3 9 11 14 16 11 6 -4 20 4
30 17 11 13 16 17 12 9 -4 -8 5 -4 21 10 16 14 25 19 20 11 -5 -9 -4 -12 3 -7
7 4 12 14 12 22 0 8 3 13 8 13 24 -4 42 2 36 12 -5 8 1 10 19 7 15 -3 24 -1
21 4 -3 4 2 11 10 14 9 3 14 10 11 14 -3 4 3 7 13 6 10 0 16 5 14 13 -3 12 0
12 12 2 11 -9 16 -9 22 0 5 8 3 10 -7 5 -8 -4 -5 0 5 8 11 9 28 16 38 16 10 0
18 5 18 12 0 6 3 9 6 5 4 -3 13 1 21 9 8 8 19 12 24 8 5 -3 8 0 7 8 -2 7 3 12
10 10 6 -1 12 3 12 9 0 5 5 7 10 4 6 -3 10 -1 10 5 0 6 4 9 9 6 5 -3 11 1 14
9 4 8 15 12 26 10 14 -2 18 1 14 11 -3 9 2 14 16 14 12 0 21 5 21 11 0 5 5 7
10 4 6 -3 10 -2 10 3 0 6 14 15 31 21 17 6 28 15 24 20 -3 6 3 8 15 6 11 -2
19 1 17 8 -1 7 6 11 16 9 9 -2 17 2 17 8 0 6 5 8 10 5 6 -3 10 -2 10 4 0 6 20
20 45 31 24 11 54 30 66 43 12 12 19 16 15 10 -4 -8 5 -6 23 4 16 10 27 21 24
25 -2 5 -1 8 4 7 19 -3 34 2 29 10 -4 5 3 7 14 4 14 -4 20 0 20 11 0 10 5 14
10 11 6 -3 13 1 16 10 6 13 8 14 15 3 7 -10 9 -10 9 0 0 6 7 12 16 12 8 0 12
5 9 10 -3 6 3 10 14 10 12 0 21 5 21 11 0 5 5 7 12 3 7 -5 9 -2 6 8 -4 8 -1
15 7 15 25 0 85 34 79 45 -4 6 3 5 16 -2 12 -7 20 -8 16 -2 -6 10 42 47 51 38
3 -2 -4 -18 -16 -34 -11 -16 -17 -32 -13 -36 4 -4 0 -6 -8 -4 -8 2 -14 -3 -13
-9 2 -7 -4 -13 -13 -13 -9 0 -14 -6 -11 -13 3 -8 -4 -20 -15 -28 -10 -8 -26
-29 -35 -46 -8 -18 -19 -30 -24 -27 -5 3 -6 -2 -3 -10 4 -10 1 -16 -10 -16
-10 0 -13 -5 -9 -17 4 -10 2 -14 -4 -10 -13 8 -26 -20 -16 -35 3 -6 2 -8 -4
-5 -9 6 -43 -26 -43 -40 0 -3 -12 -22 -27 -42 -16 -20 -27 -39 -25 -43 1 -5
-3 -8 -8 -8 -6 0 -10 -7 -10 -15 0 -9 -6 -12 -17 -8 -10 4 -14 2 -10 -4 4 -6
1 -18 -7 -26 -8 -8 -12 -17 -9 -21 4 -3 2 -6 -4 -6 -6 0 -18 -11 -27 -25 -15
-23 -15 -24 1 -19 10 2 8 -1 -4 -7 -13 -7 -23 -16 -23 -21 0 -5 -5 -6 -12 -2
-7 4 -8 3 -4 -4 4 -6 -3 -21 -14 -32 -11 -11 -18 -25 -15 -30 4 -6 -1 -10 -9
-10 -9 0 -16 -7 -16 -16 0 -9 -5 -12 -12 -8 -6 4 -8 3 -4 -4 3 -6 0 -17 -8
-25 -8 -8 -12 -18 -8 -22 4 -5 -1 -5 -11 -2 -15 6 -17 3 -12 -12 3 -11 0 -23
-6 -27 -8 -5 -10 -3 -4 7 5 10 5 11 -3 4 -5 -5 -12 -19 -14 -30 -2 -11 -11
-19 -20 -19 -10 1 -14 -4 -11 -12 3 -8 0 -14 -7 -14 -6 0 -8 -4 -5 -10 3 -5 1
-10 -4 -10 -6 0 -10 -6 -8 -12 1 -7 -4 -12 -11 -10 -8 1 -11 -2 -7 -8 3 -5 -1
-13 -9 -16 -9 -3 -13 -10 -10 -15 3 -5 -1 -12 -9 -15 -9 -3 -18 -17 -21 -30
-4 -14 -11 -22 -16 -19 -6 3 -10 -1 -10 -9 0 -9 -5 -16 -11 -16 -5 0 -7 -4 -4
-10 3 -5 1 -10 -4 -10 -6 0 -11 -7 -11 -16 0 -8 -4 -12 -10 -9 -5 3 -10 0 -10
-8 0 -7 -9 -23 -20 -35 -12 -12 -19 -22 -16 -22 3 0 -6 -12 -20 -27 -13 -14
-22 -28 -20 -31 7 -7 -18 -31 -27 -25 -4 2 -6 1 -5 -4 1 -4 -3 -18 -10 -29 -6
-12 -8 -24 -4 -28 3 -4 -2 -4 -12 0 -14 5 -17 4 -12 -4 4 -7 0 -15 -9 -18 -12
-5 -13 -9 -4 -20 10 -12 9 -13 -5 -8 -12 5 -19 0 -23 -15 -3 -11 -10 -21 -15
-21 -5 0 -7 -4 -3 -9 3 -5 -4 -16 -16 -25 -12 -8 -18 -19 -14 -25 6 -10 -7
-15 -28 -12 -4 1 -2 -9 4 -21 12 -22 11 -22 -6 -8 -11 9 -16 10 -11 3 4 -7 3
-13 -3 -13 -6 0 -7 -7 -4 -17 4 -10 2 -14 -5 -9 -6 3 -13 -3 -17 -14 -4 -11
-10 -18 -15 -15 -4 3 -11 -2 -14 -11 -4 -10 -2 -13 7 -9 6 4 1 -3 -13 -15 -14
-12 -18 -19 -10 -15 8 4 3 -5 -13 -19 -15 -15 -25 -31 -22 -36 3 -4 -2 -11
-11 -14 -9 -3 -12 -11 -8 -18 6 -10 5 -10 -8 0 -13 10 -15 9 -13 -12 2 -17 -3
-26 -17 -29 -11 -3 -17 -10 -13 -16 3 -6 1 -11 -5 -11 -6 0 -15 -12 -20 -26
-6 -14 -14 -22 -20 -19 -6 3 -7 -1 -4 -9 4 -9 -1 -18 -10 -22 -9 -3 -13 -10
-10 -15 3 -5 0 -9 -5 -9 -6 0 -11 -7 -11 -15 0 -9 -7 -18 -15 -21 -8 -4 -15
-13 -15 -21 0 -8 -4 -11 -10 -8 -6 4 -7 -1 -3 -11 5 -13 3 -16 -10 -11 -11 4
-14 2 -11 -7 3 -7 -2 -16 -11 -20 -9 -3 -13 -10 -10 -16 3 -5 1 -10 -4 -10 -6
0 -11 -7 -11 -15 0 -8 -6 -15 -13 -15 -7 0 -18 -10 -26 -22 l-14 -23 24 20
c13 11 8 2 -11 -20 -19 -22 -38 -39 -43 -37 -5 1 -5 -3 -1 -9 4 -7 -1 -18 -10
-25 -10 -7 -17 -16 -18 -21 0 -4 -4 -7 -10 -5 -5 1 -7 -2 -3 -8 3 -5 -1 -13
-9 -16 -9 -3 -13 -10 -10 -15 3 -5 -2 -16 -10 -25 -9 -9 -13 -21 -9 -27 4 -7
-1 -6 -10 2 -15 12 -17 12 -11 -3 3 -9 2 -16 -4 -16 -5 0 -12 -9 -15 -21 -4
-14 -10 -18 -18 -13 -9 5 -10 2 -6 -9 4 -11 1 -17 -8 -17 -8 0 -12 -6 -9 -14
3 -7 -2 -16 -11 -20 -9 -3 -13 -11 -10 -16 4 -6 1 -9 -5 -8 -7 2 -14 -6 -16
-17 -1 -11 -11 -25 -21 -33 -10 -7 -18 -16 -18 -21 0 -14 -32 -40 -40 -33 -5
4 -5 1 0 -7 5 -9 2 -19 -9 -27 -10 -7 -17 -15 -17 -18 3 -20 0 -26 -8 -21 -10
5 -27 -32 -23 -49 2 -5 -4 -6 -13 -3 -10 4 -15 0 -15 -12 0 -22 -23 -44 -36
-33 -4 4 -2 -2 6 -12 8 -11 10 -17 3 -13 -7 4 -14 -1 -18 -12 -3 -11 -12 -22
-20 -25 -9 -3 -12 -12 -8 -22 3 -10 2 -15 -3 -12 -5 3 -18 -6 -28 -20 -11 -14
-13 -22 -6 -17 9 6 11 4 6 -4 -5 -7 -15 -10 -23 -7 -8 3 -11 1 -8 -4 4 -6 -1
-17 -9 -26 -9 -9 -13 -21 -9 -27 4 -6 0 -8 -10 -4 -11 4 -14 2 -10 -9 3 -7 0
-14 -7 -14 -6 0 -8 -5 -4 -12 5 -8 2 -9 -10 -5 -9 4 -15 3 -13 -1 7 -12 -12
-54 -22 -48 -5 3 -12 -1 -15 -10 -4 -10 -2 -13 7 -9 6 4 4 0 -5 -8 -10 -8 -15
-17 -11 -20 3 -4 1 -7 -6 -7 -7 0 -9 -4 -6 -10 4 -6 -1 -7 -11 -3 -13 5 -16 3
-11 -10 4 -10 -3 -23 -21 -37 -15 -12 -21 -19 -15 -15 8 4 11 1 7 -9 -3 -9 -9
-15 -12 -14 -20 2 -25 -3 -12 -12 13 -8 12 -10 -2 -10 -10 0 -18 -7 -18 -15 0
-8 -4 -15 -10 -15 -5 0 -10 -6 -10 -14 0 -7 -11 -25 -24 -39 -13 -14 -22 -28
-19 -30 2 -3 -5 -8 -16 -12 -12 -3 -19 -10 -16 -15 3 -5 1 -11 -5 -15 -6 -4
-7 -11 -4 -17 4 -7 2 -8 -4 -4 -7 4 -12 2 -12 -4 0 -6 -4 -8 -10 -5 -6 3 -7
-1 -4 -9 4 -9 0 -18 -9 -22 -10 -3 -13 -12 -10 -22 4 -9 3 -14 -1 -10 -12 10
-34 -14 -29 -30 3 -7 0 -12 -8 -10 -8 2 -13 -4 -13 -14 1 -11 -4 -15 -15 -10
-14 5 -14 4 -2 -11 12 -16 8 -22 -12 -18 -5 1 -11 -8 -14 -19 -3 -11 -10 -17
-16 -13 -6 4 -8 0 -4 -10 3 -9 0 -18 -9 -21 -9 -3 -12 -11 -9 -16 4 -6 1 -9
-7 -8 -8 2 -12 -4 -10 -16 2 -11 -1 -15 -7 -11 -6 3 -15 -5 -20 -18 -6 -14
-15 -28 -21 -32 -5 -3 -7 -12 -4 -18 4 -7 4 -9 -1 -5 -11 10 -38 -29 -30 -42
4 -6 3 -9 -2 -8 -5 2 -20 -8 -33 -21 -14 -13 -19 -21 -12 -17 6 4 12 2 12 -3
0 -6 -7 -11 -15 -11 -8 0 -15 -6 -15 -13 0 -7 -15 -26 -32 -42 -23 -19 -27
-26 -13 -22 19 7 19 6 3 -7 -10 -7 -18 -19 -18 -25 0 -7 -4 -10 -9 -7 -8 6
-25 -30 -22 -47 1 -5 -3 -6 -9 -2 -5 3 -10 1 -10 -4 0 -6 -9 -20 -20 -31 -11
-11 -18 -20 -15 -20 3 0 -4 -10 -15 -22 -11 -12 -18 -28 -15 -36 2 -7 1 -11
-4 -7 -12 7 -43 -24 -36 -35 3 -4 -2 -11 -11 -14 -9 -4 -14 -13 -10 -21 3 -8
2 -14 -2 -14 -20 3 -33 -2 -27 -11 3 -6 -1 -17 -9 -26 -9 -9 -13 -20 -10 -26
4 -7 2 -8 -4 -4 -7 4 -12 2 -12 -4 0 -6 -4 -8 -10 -5 -5 3 -7 0 -4 -8 3 -8 -2
-20 -10 -27 -9 -7 -13 -16 -10 -21 3 -5 -1 -6 -9 -3 -10 3 -16 -5 -21 -26 -3
-17 -10 -29 -15 -26 -5 3 -14 -8 -20 -24 -5 -17 -14 -30 -19 -30 -9 0 -58 -81
-54 -92 1 -4 -5 -5 -13 -2 -9 4 -15 0 -15 -10 0 -9 -5 -16 -11 -16 -5 0 -8 -4
-5 -8 3 -5 -8 -23 -23 -40 -16 -17 -26 -33 -23 -36 3 -3 0 -6 -6 -6 -7 0 -12
-10 -12 -22 0 -17 -3 -19 -9 -10 -6 10 -10 8 -14 -8 -4 -15 -10 -19 -19 -14
-11 6 -11 5 0 -8 10 -13 10 -17 -3 -22 -9 -3 -13 -11 -9 -17 5 -8 3 -9 -5 -5
-8 5 -14 0 -18 -14 -4 -14 -11 -19 -22 -15 -13 5 -13 4 -4 -6 10 -10 8 -16 -9
-31 -12 -10 -17 -18 -13 -18 5 0 0 -7 -11 -15 -10 -8 -15 -15 -10 -15 5 0 -1
-8 -12 -19 -12 -10 -19 -21 -15 -25 3 -3 1 -6 -6 -6 -7 0 -9 -5 -5 -12 6 -9 3
-9 -9 0 -14 12 -16 11 -12 -7 2 -12 -1 -21 -6 -21 -6 0 -7 -5 -3 -12 5 -7 2
-9 -9 -5 -12 4 -14 2 -10 -10 5 -12 3 -14 -8 -8 -12 8 -12 6 0 -9 12 -15 12
-17 0 -14 -8 2 -13 -3 -11 -10 1 -8 -2 -11 -8 -7 -5 3 -10 1 -10 -5 0 -6 -4
-9 -9 -6 -5 4 -7 -4 -3 -16 3 -14 2 -19 -6 -14 -11 6 -16 -6 -13 -26 0 -5 -6
-8 -15 -8 -8 0 -12 -4 -9 -10 3 -5 1 -10 -4 -10 -6 0 -11 -7 -11 -16 0 -8 -4
-12 -10 -9 -5 3 -10 -1 -10 -9 0 -9 -6 -16 -12 -16 -9 0 -8 -4 2 -10 13 -8 12
-10 -2 -10 -10 0 -18 -5 -18 -11 0 -5 -5 -7 -12 -3 -7 5 -8 3 -3 -6 5 -8 1
-18 -10 -27 -11 -7 -15 -13 -9 -13 5 0 -2 -10 -16 -21 -14 -11 -18 -18 -10
-14 8 4 6 -1 -4 -9 -11 -9 -17 -16 -13 -16 4 0 -2 -9 -13 -20 -12 -12 -18 -25
-15 -30 4 -6 -2 -7 -12 -3 -16 6 -16 5 -4 -10 12 -15 12 -17 -4 -11 -13 5 -16
4 -11 -4 4 -7 2 -12 -3 -12 -6 0 -11 -5 -11 -11 0 -6 -7 -17 -15 -26 -8 -8
-13 -19 -10 -24 4 -5 -1 -6 -10 -3 -9 4 -15 3 -13 -2 4 -14 -22 -55 -31 -49
-5 2 -8 -3 -7 -13 0 -9 -5 -16 -12 -14 -8 1 -11 -2 -7 -8 3 -6 -1 -17 -9 -26
-9 -9 -13 -20 -10 -26 4 -6 3 -9 -2 -6 -5 3 -15 0 -22 -8 -7 -8 -11 -14 -8
-14 2 0 -9 -14 -25 -31 -16 -17 -27 -35 -24 -39 3 -5 -1 -12 -9 -17 -8 -4 -15
-12 -16 -18 -1 -5 -6 -9 -12 -7 -5 1 -7 -2 -3 -8 3 -5 -1 -13 -9 -16 -9 -3
-13 -10 -10 -15 7 -13 -15 -40 -27 -33 -5 3 -6 -3 -2 -12 5 -13 3 -15 -7 -9
-10 6 -12 4 -7 -8 4 -11 1 -17 -8 -17 -8 0 -14 -6 -13 -12 2 -7 -3 -12 -11
-10 -8 2 -11 -3 -8 -11 3 -8 -3 -20 -14 -27 -14 -11 -15 -16 -6 -22 8 -5 7 -8
-5 -8 -10 0 -18 -6 -18 -13 0 -7 -9 -19 -20 -27 -12 -9 -18 -21 -14 -32 3 -10
0 -18 -6 -18 -6 0 -8 5 -4 12 4 7 3 8 -4 4 -7 -4 -12 -12 -12 -18 0 -6 -8 -17
-17 -25 -12 -10 -13 -12 -3 -8 8 4 5 -2 -7 -13 -13 -11 -23 -25 -23 -31 0 -5
-8 -15 -17 -20 -10 -6 -14 -11 -10 -11 5 0 1 -7 -7 -16 -9 -8 -13 -20 -10 -26
4 -7 2 -8 -4 -4 -7 4 -12 1 -12 -9 0 -8 -7 -18 -15 -21 -8 -4 -15 -12 -15 -19
0 -7 -7 -16 -16 -19 -9 -4 -14 -9 -11 -12 3 -3 -3 -14 -14 -25 -11 -11 -17
-24 -14 -29 4 -6 -1 -10 -9 -10 -8 0 -18 -5 -22 -12 -5 -7 -3 -8 7 -3 12 8 12
6 0 -8 -7 -9 -18 -14 -25 -10 -6 4 -4 -2 4 -13 8 -10 11 -16 6 -12 -12 10 -39
-20 -30 -33 4 -8 3 -9 -4 -5 -11 6 -16 -5 -13 -26 0 -4 -6 -5 -14 -2 -10 4
-15 0 -15 -14 0 -11 -7 -22 -15 -26 -8 -3 -15 -12 -15 -21 0 -8 -8 -15 -17
-16 -13 0 -14 -2 -4 -6 10 -4 8 -9 -10 -20 -19 -11 -20 -13 -4 -9 18 5 18 4
-2 -10 -13 -9 -23 -23 -23 -31 0 -8 -5 -11 -12 -7 -8 5 -9 2 -5 -9 4 -10 2
-16 -6 -14 -7 1 -11 -4 -9 -10 1 -7 -3 -13 -9 -13 -5 0 -8 -4 -4 -9 3 -5 -7
-19 -21 -30 -15 -12 -23 -21 -18 -21 4 0 0 -6 -11 -13 -10 -8 -15 -19 -11 -26
5 -7 2 -10 -6 -9 -7 2 -12 -5 -12 -14 1 -10 -2 -15 -7 -13 -9 6 -35 -35 -31
-48 1 -5 -1 -6 -6 -3 -5 3 -14 -6 -20 -19 -7 -14 -16 -25 -22 -25 -6 0 -9 -4
-6 -9 3 -5 -1 -14 -9 -21 -8 -7 -12 -17 -8 -23 3 -6 1 -7 -5 -3 -7 4 -12 2
-12 -4 0 -6 -4 -8 -10 -5 -6 3 -7 -1 -4 -9 3 -9 1 -16 -6 -16 -6 0 -9 -3 -7
-7 7 -11 -19 -33 -29 -25 -4 4 -4 2 -1 -5 4 -6 0 -19 -9 -27 -8 -9 -12 -16 -8
-16 4 0 -3 -8 -14 -19 -12 -10 -19 -21 -15 -25 3 -3 1 -6 -5 -6 -7 0 -12 -7
-12 -16 0 -9 -5 -12 -12 -8 -8 5 -9 2 -5 -10 4 -10 3 -15 -3 -11 -6 3 -11 1
-11 -4 -1 -6 -2 -16 -3 -22 0 -6 -11 -16 -23 -22 -12 -7 -22 -16 -22 -22 -2
-26 -14 -45 -23 -39 -8 5 -9 1 -4 -12 4 -10 4 -15 0 -12 -8 9 -34 -14 -27 -25
2 -4 -3 -10 -11 -13 -9 -3 -14 -10 -11 -14 3 -4 -2 -11 -11 -14 -9 -4 -14 -13
-10 -21 3 -8 2 -14 -2 -12 -4 1 -7 0 -8 -3 0 -3 -13 -18 -28 -34 -14 -16 -25
-35 -22 -42 3 -8 -1 -11 -10 -7 -9 3 -14 -2 -14 -17 0 -11 -4 -18 -10 -15 -9
6 -14 -8 -11 -28 1 -5 -3 -6 -8 -3 -5 4 -15 -7 -22 -23 -7 -16 -18 -27 -23
-24 -5 4 -7 -1 -3 -10 4 -12 1 -17 -10 -17 -9 0 -13 -3 -10 -7 4 -3 -1 -12
-11 -20 -11 -10 -12 -12 -2 -8 8 4 4 -2 -9 -13 -15 -12 -21 -24 -16 -32 5 -9
4 -11 -4 -6 -6 4 -14 0 -18 -11 -3 -10 -13 -22 -20 -26 -7 -5 -11 -12 -8 -17
3 -5 -4 -15 -16 -24 -12 -8 -18 -19 -14 -25 3 -6 -1 -11 -9 -11 -9 0 -16 -5
-16 -11 0 -6 -7 -17 -15 -26 -8 -8 -12 -19 -9 -25 4 -6 3 -8 -3 -5 -5 4 -16
-5 -23 -18 -7 -13 -18 -22 -23 -18 -6 3 -7 1 -3 -5 9 -14 -58 -104 -70 -94 -5
4 -2 -2 6 -12 8 -11 10 -17 4 -13 -9 5 -47 -28 -49 -43 0 -3 -4 -4 -9 -2 -5 2
-3 -5 4 -15 8 -10 11 -15 6 -11 -10 8 -36 -15 -36 -32 0 -6 -5 -8 -12 -4 -8 5
-8 2 1 -10 8 -9 10 -16 5 -15 -24 6 -42 -13 -38 -39 3 -17 1 -22 -4 -14 -7 10
-11 10 -21 -2 -7 -8 -10 -20 -6 -26 6 -9 -8 -15 -28 -11 -5 1 -6 -3 -3 -8 4
-5 2 -12 -4 -16 -6 -4 -8 -10 -5 -15 3 -4 -2 -10 -10 -14 -8 -3 -15 -12 -15
-20 0 -7 -7 -17 -16 -20 -8 -3 -13 -10 -10 -14 3 -5 -4 -16 -15 -26 -12 -10
-18 -24 -15 -33 5 -13 4 -14 -9 -3 -13 11 -14 10 -9 -5 5 -13 4 -16 -4 -11 -7
4 -12 2 -12 -5 0 -6 -8 -18 -17 -26 -11 -9 -12 -11 -3 -7 15 8 -15 -34 -35
-48 -5 -4 -11 -12 -11 -18 -1 -5 -2 -15 -3 -21 0 -5 -5 -8 -10 -5 -5 3 -16
-10 -25 -29 -10 -21 -22 -33 -28 -29 -6 4 -8 3 -5 -3 4 -6 -4 -22 -18 -37 -13
-14 -21 -26 -18 -26 3 0 -1 -8 -10 -18 -10 -10 -14 -22 -10 -25 3 -4 -1 -7
-10 -7 -10 0 -16 -6 -15 -12 2 -7 -2 -12 -9 -11 -7 2 -10 -6 -8 -17 2 -12 -2
-20 -10 -20 -8 0 -17 -5 -21 -12 -5 -7 -2 -9 7 -4 8 4 6 1 -3 -7 -10 -8 -18
-19 -18 -25 0 -5 -7 -13 -16 -16 -9 -4 -14 -9 -11 -12 3 -3 -2 -14 -11 -24
-34 -37 -41 -48 -35 -54 4 -3 -1 -6 -10 -6 -10 0 -17 -3 -16 -7 3 -18 -14 -52
-22 -47 -5 3 -9 -2 -9 -10 0 -9 -5 -16 -12 -16 -6 0 -9 -3 -5 -6 7 -8 -15 -33
-25 -28 -3 2 -5 -7 -3 -21 2 -22 0 -23 -13 -13 -11 9 -14 9 -9 1 4 -6 3 -14
-3 -18 -6 -4 -7 -11 -4 -17 4 -7 2 -8 -4 -4 -7 4 -12 2 -12 -4 0 -6 -5 -8 -12
-4 -8 5 -7 0 2 -11 8 -10 11 -16 5 -13 -12 7 -37 -17 -28 -26 4 -3 1 -6 -6 -6
-7 0 -10 -4 -6 -9 3 -6 -4 -15 -15 -21 -11 -6 -19 -16 -17 -23 1 -7 -4 -11
-11 -9 -8 1 -11 -1 -8 -6 7 -12 -29 -64 -39 -55 -4 5 -6 -2 -3 -14 4 -16 2
-20 -10 -16 -9 4 -13 2 -9 -4 4 -6 0 -14 -9 -17 -8 -3 -13 -10 -10 -15 3 -4
-4 -17 -15 -27 -11 -10 -17 -24 -14 -32 5 -12 3 -13 -10 -2 -9 7 -15 9 -14 4
4 -22 -2 -35 -13 -28 -8 5 -9 2 -5 -9 4 -10 2 -17 -4 -17 -6 0 -9 -7 -5 -15 3
-8 2 -14 -2 -14 -21 3 -32 -3 -32 -19 0 -10 -9 -24 -19 -32 -11 -7 -18 -17
-16 -21 3 -4 -1 -9 -9 -12 -18 -7 -50 39 -39 56 4 8 1 8 -10 -1 -14 -12 -16
-11 -12 8 2 13 2 20 -2 16 -10 -10 -33 15 -33 36 0 10 -3 17 -7 15 -10 -6 -34
19 -26 27 3 3 -2 8 -11 12 -9 3 -14 10 -11 14 3 5 -4 18 -16 29 -12 11 -18 24
-14 32 5 7 4 10 -1 7 -5 -3 -15 0 -22 8 -7 8 -10 14 -5 14 4 0 -1 6 -12 13
-12 9 -15 19 -10 28 8 12 6 12 -8 0 -15 -12 -17 -12 -12 0 3 8 -3 24 -14 36
-11 11 -17 24 -14 27 4 3 -1 6 -10 6 -10 0 -15 7 -12 20 2 11 1 19 -3 19 -22
-4 -32 3 -32 22 0 11 -4 17 -10 14 -6 -3 -7 1 -4 9 4 11 0 16 -10 16 -9 0 -15
3 -15 7 4 22 -2 33 -13 27 -8 -5 -9 -2 -5 9 4 11 1 17 -8 17 -8 0 -14 6 -13
13 2 6 -2 11 -9 10 -7 -2 -10 4 -7 12 4 8 -1 17 -10 21 -9 3 -13 10 -10 15 3
5 -2 9 -11 9 -9 0 -14 4 -11 9 3 5 -1 14 -9 21 -8 7 -12 16 -9 21 3 5 -2 9
-10 9 -9 0 -15 3 -15 8 3 19 -2 33 -11 27 -5 -3 -10 1 -10 9 0 9 -5 16 -10 16
-6 0 -9 6 -8 12 2 7 -3 12 -10 10 -6 -1 -11 4 -10 10 2 7 -3 12 -10 10 -7 -1
-12 3 -11 10 3 26 -1 39 -11 33 -9 -5 -12 1 -9 21 0 3 -10 14 -22 25 -15 12
-17 19 -8 19 12 0 12 2 -1 9 -8 6 -18 7 -22 5 -4 -3 -8 4 -8 15 0 11 -9 26
-21 34 -15 11 -17 16 -7 20 9 4 8 6 -4 6 -9 1 -20 10 -23 21 -4 11 -11 18 -16
15 -5 -3 -6 1 -3 9 4 9 -1 18 -10 22 -9 3 -16 15 -16 26 0 10 -3 17 -7 15 -9
-6 -34 19 -27 26 2 2 -2 10 -11 17 -8 7 -15 19 -15 27 0 8 -4 11 -10 8 -5 -3
-10 3 -10 15 0 12 -4 18 -10 15 -5 -3 -10 1 -10 9 0 9 -5 16 -10 16 -6 0 -9 6
-8 13 2 6 -3 11 -9 9 -7 -1 -13 7 -13 18 0 11 -5 20 -11 20 -5 0 -7 5 -4 10 3
6 -1 10 -9 10 -9 0 -15 6 -14 13 2 6 -3 11 -10 9 -6 -1 -11 1 -11 5 4 23 -2
43 -11 38 -5 -3 -10 1 -10 9 0 9 -4 16 -10 16 -5 0 -10 7 -10 16 0 8 -4 12
-10 9 -5 -3 -10 3 -10 13 0 11 -7 23 -16 26 -8 3 -13 10 -10 14 3 5 -4 15 -15
22 -10 8 -19 20 -19 27 0 7 -5 13 -11 13 -5 0 -7 5 -4 10 3 6 -2 10 -12 10
-14 0 -15 2 -4 9 11 7 9 10 -7 16 -12 3 -21 9 -21 13 3 20 -2 32 -11 27 -5 -3
-10 3 -10 15 0 12 -4 18 -10 15 -5 -3 -10 0 -10 8 0 7 -9 23 -20 35 -11 12
-20 26 -20 31 0 5 -10 13 -21 16 -17 6 -19 9 -8 16 11 7 11 9 1 9 -8 0 -10 5
-6 12 5 8 2 9 -10 5 -9 -4 -15 -3 -11 3 3 5 -5 19 -17 31 -13 12 -16 19 -8 15
13 -7 13 -6 0 6 -8 7 -21 25 -29 40 -8 15 -19 24 -24 21 -6 -4 -8 0 -5 8 3 8
-4 23 -15 34 -11 11 -16 14 -12 6 6 -10 4 -12 -4 -7 -9 6 -9 11 1 24 10 12 10
14 0 8 -7 -4 -15 -1 -18 8 -3 9 -10 13 -15 10 -5 -3 -6 2 -3 10 4 9 -1 18 -10
22 -9 3 -13 10 -10 15 3 5 0 9 -7 9 -7 0 -10 3 -6 6 3 4 -4 15 -16 25 -12 10
-18 18 -14 19 4 0 2 6 -5 14 -7 8 -17 11 -22 8 -5 -3 -6 0 -3 5 4 6 -5 23 -20
37 -21 21 -22 25 -7 20 11 -3 7 2 -9 14 -16 11 -28 22 -28 26 3 20 0 26 -9 21
-6 -4 -10 6 -10 22 0 22 -2 25 -10 13 -8 -13 -10 -13 -10 2 0 9 -5 18 -11 20
-5 2 -11 12 -13 22 -1 11 -11 23 -22 27 -13 5 -14 8 -4 9 9 0 6 6 -10 15 -14
8 -20 15 -15 15 6 0 1 7 -9 15 -11 8 -16 15 -12 15 5 0 0 8 -11 18 -10 9 -14
15 -8 12 6 -3 2 3 -8 13 -11 9 -16 17 -12 17 5 0 -4 11 -18 24 -15 14 -28 30
-29 37 -5 21 -22 37 -33 31 -5 -3 -4 2 4 11 12 15 12 17 -4 11 -12 -5 -16 -4
-12 3 4 6 0 16 -9 23 -8 7 -13 19 -10 26 3 9 0 11 -11 7 -13 -5 -15 -2 -10 11
5 13 3 17 -7 13 -10 -4 -13 -1 -10 7 3 7 -2 16 -11 20 -9 3 -13 10 -10 16 3 5
-1 10 -9 10 -9 0 -13 7 -11 20 3 14 -2 20 -14 20 -13 0 -21 10 -25 33 -5 25
-9 29 -16 17 -8 -12 -10 -11 -10 8 0 12 -5 22 -11 22 -5 0 -7 5 -4 10 3 6 -1
10 -10 10 -11 0 -15 5 -12 14 3 8 -1 17 -10 20 -9 4 -13 12 -9 23 4 10 4 15 1
11 -9 -9 -45 23 -39 34 3 4 1 8 -4 8 -5 0 -12 10 -15 21 -4 15 -11 20 -23 15
-14 -5 -15 -4 -4 9 11 14 10 17 -8 21 -14 4 -19 12 -17 25 2 10 -1 19 -6 19
-6 0 -17 6 -25 14 -11 11 -11 16 -1 19 7 3 4 6 -6 6 -10 1 -15 6 -12 11 3 6
-1 10 -9 10 -9 0 -13 7 -11 20 2 11 -1 23 -7 26 -7 5 -8 2 -3 -7 4 -8 -1 -5
-12 6 -11 11 -19 23 -16 27 2 4 -8 19 -22 34 -14 14 -22 30 -19 36 4 7 2 8 -4
4 -11 -6 -16 6 -13 27 1 7 -15 11 -33 8 -5 -1 -6 5 -2 14 3 9 -1 18 -9 21 -8
4 -12 10 -9 15 3 5 -3 9 -13 10 -11 0 -13 3 -5 6 8 3 2 15 -20 35 -18 16 -27
27 -20 23 6 -3 12 -1 12 4 0 6 -6 11 -14 11 -8 0 -18 9 -21 20 -3 11 -11 20
-16 20 -5 0 -9 5 -9 11 0 7 -8 18 -17 26 -10 8 -12 12 -6 8 9 -4 11 -1 7 10
-4 9 -9 14 -11 11 -7 -6 -32 17 -27 25 2 4 -3 12 -11 19 -8 7 -15 19 -15 26 0
8 -4 14 -8 14 -4 0 -16 15 -27 33 -22 36 -31 49 -61 82 -12 13 -19 26 -16 29
3 3 0 6 -7 6 -7 0 -9 5 -6 10 3 6 -1 10 -10 10 -9 0 -14 4 -11 9 3 5 -8 22
-24 40 -17 17 -30 40 -30 51 0 18 -10 24 -32 21 -4 0 -5 8 -3 19 2 11 -1 19
-6 17 -5 -1 -17 11 -27 28 -18 31 -30 48 -49 69 -7 8 -9 16 -6 20 4 3 1 6 -5
6 -7 0 -12 7 -12 16 0 8 -4 13 -9 9 -5 -3 -12 4 -16 15 -4 11 -19 33 -33 47
-15 15 -20 22 -12 17 9 -5 7 -1 -3 9 -11 9 -16 17 -12 17 5 0 -2 8 -13 19 -12
10 -19 21 -15 25 3 3 0 6 -7 6 -7 0 -10 3 -7 7 4 3 -4 16 -16 27 -13 12 -21
28 -19 35 3 8 0 11 -7 7 -6 -4 -11 0 -11 9 0 9 -4 13 -10 10 -5 -3 -10 1 -10
10 0 10 -5 13 -12 9 -6 -4 -8 -3 -5 4 9 14 -3 43 -14 36 -8 -4 -13 11 -6 19 6
6 -29 34 -37 29 -5 -3 -6 0 -2 6 3 6 -6 23 -21 37 -23 21 -24 25 -8 20 14 -5
13 -2 -5 9 -14 8 -21 15 -17 16 4 0 2 6 -5 14 -7 8 -15 12 -18 11 -3 -2 -7 6
-7 18 -1 12 -7 23 -14 26 -14 4 -44 38 -45 51 -1 6 -2 15 -3 20 0 6 -8 10 -17
10 -8 0 -13 3 -10 8 2 4 -2 18 -11 32 -8 14 -12 17 -9 7 3 -11 2 -15 -4 -12
-6 3 -10 15 -10 26 0 11 -4 17 -10 14 -5 -3 -7 0 -4 8 3 8 -2 17 -10 20 -9 4
-16 14 -16 22 0 9 -4 13 -10 10 -5 -3 -10 1 -10 10 0 19 -25 47 -33 38 -4 -3
-4 4 -2 17 3 16 0 20 -11 16 -8 -3 -12 -2 -9 3 3 6 -3 14 -12 20 -14 8 -15 11
-3 11 12 0 11 3 -3 11 -9 6 -14 15 -11 21 4 6 3 9 -2 6 -8 -5 -43 23 -36 29 7
8 1 23 -8 18 -5 -3 -10 1 -10 9 0 9 -5 16 -11 16 -6 0 -9 9 -6 19 3 13 1 18
-8 14 -14 -5 -39 30 -28 41 3 3 -1 6 -11 6 -9 0 -14 5 -11 10 3 6 1 10 -5 10
-6 0 -9 4 -6 8 3 5 -4 15 -15 22 -10 8 -19 22 -19 32 0 10 -6 17 -12 15 -8 -1
-12 6 -10 18 2 11 1 17 -3 13 -9 -8 -35 16 -35 32 0 6 -4 8 -10 5 -6 -4 -7 1
-3 11 4 12 3 15 -5 10 -8 -5 -10 -1 -5 10 5 13 3 16 -9 11 -12 -4 -15 0 -13
19 1 14 0 22 -3 20 -6 -7 -32 20 -32 33 0 6 -4 11 -8 11 -5 0 -15 11 -22 25
-7 13 -18 21 -24 18 -6 -4 -5 1 3 10 13 17 6 23 -21 18 -5 0 -7 2 -7 7 3 20
-2 32 -13 26 -6 -4 -8 -3 -5 3 4 6 -5 23 -18 37 -14 15 -25 33 -25 41 0 8 -8
19 -17 24 -10 6 -14 11 -10 11 4 0 -6 13 -23 30 -16 16 -30 34 -30 40 0 6 -7
18 -15 27 -8 8 -12 19 -9 24 3 6 -2 9 -12 7 -11 -2 -19 3 -20 12 -3 36 -5 41
-14 35 -9 -6 -14 8 -11 28 0 4 -6 7 -14 7 -8 0 -14 6 -12 13 1 6 -4 11 -11 9
-8 -1 -11 2 -7 8 3 6 -1 17 -9 26 -9 9 -14 20 -11 25 4 5 -2 6 -11 2 -11 -4
-15 -3 -10 5 3 6 -5 22 -19 36 -14 15 -24 30 -20 35 3 5 -4 13 -16 16 -16 5
-18 9 -9 15 9 6 7 10 -8 15 -12 3 -21 9 -21 13 3 19 -2 33 -10 28 -11 -7 -23
22 -14 37 4 7 0 8 -11 4 -14 -6 -17 -3 -12 9 4 11 2 15 -8 11 -10 -4 -13 -1
-10 7 3 7 -7 25 -22 39 -15 15 -23 27 -19 27 4 0 -4 11 -20 26 -15 14 -25 28
-22 31 3 3 -7 16 -23 30 -16 13 -29 27 -29 31 4 25 -4 40 -21 45 -11 3 -19 11
-18 19 2 7 -2 12 -9 11 -7 -2 -10 4 -7 12 4 8 -1 17 -10 21 -9 3 -16 12 -16
20 0 8 -4 14 -10 14 -5 0 -10 7 -10 16 0 9 -5 12 -11 8 -7 -4 -10 -1 -7 7 2 7
-6 23 -20 36 -13 12 -21 27 -17 32 4 7 0 8 -11 4 -11 -4 -15 -3 -11 4 4 6 0
19 -9 27 -9 9 -13 23 -10 31 3 9 0 12 -10 8 -7 -3 -14 0 -14 7 0 6 -4 9 -9 5
-6 -3 -8 4 -6 15 2 13 -1 20 -11 20 -8 0 -12 5 -9 10 3 6 1 10 -5 10 -6 0 -14
8 -17 18 -10 24 -53 87 -53 76 0 -5 -5 -1 -11 9 -5 9 -7 22 -4 27 3 6 -1 10
-9 10 -8 0 -18 5 -22 12 -5 7 -3 8 6 3 9 -5 11 -4 6 3 -4 7 -13 12 -20 12 -8
0 -13 8 -12 18 0 9 -5 16 -11 14 -7 -1 -13 5 -13 13 0 9 -11 27 -25 41 -27 27
-33 42 -12 28 7 -5 -1 4 -18 19 -16 16 -24 25 -16 21 9 -5 12 -3 7 4 -4 7 -14
12 -22 12 -8 0 -13 4 -9 9 3 5 -2 16 -10 24 -8 9 -15 20 -15 25 0 5 -10 17
-22 26 -13 9 -17 14 -11 11 8 -4 11 -1 7 9 -3 9 -9 14 -12 13 -4 -1 -8 2 -9 6
-1 5 -10 15 -20 24 -10 8 -11 11 -3 7 8 -3 3 5 -12 19 -14 15 -30 36 -33 48
-6 17 -9 19 -17 8 -7 -11 -9 -9 -6 6 4 21 -25 58 -37 47 -3 -4 -3 1 1 11 4 11
0 19 -10 23 -9 3 -13 10 -10 15 3 5 1 9 -5 9 -5 0 -16 12 -24 28 -7 15 -19 26
-27 24 -11 -3 -11 0 -1 12 9 11 9 16 0 22 -8 5 -10 3 -4 -7 7 -12 6 -12 -6 -1
-8 7 -14 18 -14 25 -1 7 -7 11 -14 9 -7 -1 -10 2 -6 8 6 10 -1 21 -43 65 -13
14 -19 25 -15 25 4 0 3 4 -3 8 -6 4 -19 22 -28 40 -10 19 -21 30 -28 26 -7 -4
-8 -3 -4 4 4 7 2 12 -4 12 -6 0 -8 5 -5 10 3 6 1 10 -5 10 -7 0 -10 7 -7 15 4
8 1 17 -5 21 -7 5 -8 2 -3 -6 6 -9 4 -11 -4 -6 -7 5 -10 15 -6 23 5 14 3 14
-12 2 -9 -8 -14 -9 -10 -3 4 7 0 17 -8 24 -8 7 -15 19 -15 27 0 8 -5 11 -12 7
-6 -4 -8 -3 -4 4 3 6 -1 17 -9 25 -8 9 -15 18 -15 21 0 3 -9 15 -20 26 -12 12
-18 25 -15 30 4 6 -1 10 -10 10 -11 0 -15 5 -11 15 3 8 0 14 -6 12 -7 -1 -14
7 -16 18 -2 11 -12 25 -21 32 -9 7 -12 13 -8 13 12 0 -20 30 -32 30 -6 0 -7 7
-4 17 4 11 3 14 -5 9 -7 -4 -12 -1 -12 9 0 20 -25 47 -34 37 -4 -3 -4 1 0 11
4 11 0 19 -11 23 -9 4 -14 13 -11 20 3 7 0 16 -6 20 -7 5 -8 2 -3 -6 5 -9 4
-11 -3 -6 -7 4 -12 14 -12 22 0 8 -4 12 -10 9 -5 -3 -10 2 -10 12 0 10 -9 25
-20 33 -11 8 -20 21 -20 30 0 8 -14 28 -32 43 -18 16 -27 26 -20 22 6 -3 12
-1 12 4 0 6 -8 11 -17 11 -9 0 -14 3 -10 6 8 8 -16 33 -25 27 -4 -2 -5 3 -2
11 3 9 1 16 -6 16 -6 0 -8 5 -5 10 3 6 0 10 -8 10 -8 0 -17 8 -21 18 -8 26
-29 55 -48 70 -10 7 -18 19 -18 26 0 7 -9 22 -20 34 -12 12 -18 22 -15 22 3 0
-3 10 -14 22 -11 11 -18 25 -15 29 3 5 -3 6 -12 2 -11 -4 -15 -3 -11 4 4 6 1
18 -7 26 -8 8 -12 17 -9 21 4 3 -1 6 -11 6 -9 0 -15 3 -12 8 2 4 -2 18 -10 32
-7 14 -13 21 -14 17 0 -15 -30 21 -30 37 0 8 -8 20 -17 25 -10 6 -13 11 -8 11
6 0 -1 7 -15 15 -15 9 -19 15 -10 15 12 0 11 3 -3 11 -9 6 -14 15 -11 21 5 8
1 9 -10 5 -10 -4 -15 -3 -11 3 4 6 -1 17 -9 26 -9 9 -13 20 -10 26 4 6 3 9 -2
6 -13 -7 -41 26 -38 45 1 10 -2 15 -6 12 -5 -3 -14 5 -21 17 -7 13 -18 26 -25
31 -7 4 -11 14 -7 23 3 9 0 14 -8 12 -7 -2 -13 4 -14 12 -1 8 -7 14 -14 12 -7
-1 -10 2 -6 8 3 5 1 10 -5 10 -6 0 -8 5 -5 10 3 6 1 10 -6 10 -7 0 -10 3 -6 6
3 3 -4 17 -16 30 -45 47 -49 54 -35 55 7 0 3 4 -9 9 -12 5 -25 21 -29 34 -3
14 -10 23 -15 20 -5 -3 -9 2 -9 10 0 9 -4 16 -10 16 -5 0 -10 6 -10 13 0 7 -9
19 -19 27 -11 7 -18 17 -15 21 2 4 -2 13 -9 21 -7 7 -16 21 -20 31 -4 11 -12
15 -18 11 -8 -4 -9 -3 -5 4 8 13 56 -4 56 -20z m9580 -5558 c-6 -11 -13 -20
-16 -20 -2 0 0 9 6 20 6 11 13 20 16 20 2 0 0 -9 -6 -20z"/>
<path d="M20880 23160 c-9 -6 -10 -10 -3 -10 6 0 15 5 18 10 8 12 4 12 -15 0z"/>
<path d="M15440 21020 c-9 -6 -10 -10 -3 -10 6 0 15 5 18 10 8 12 4 12 -15 0z"/>
<path d="M14389 20543 c-13 -16 -12 -17 4 -4 9 7 17 15 17 17 0 8 -8 3 -21
-13z"/>
<path d="M19235 16970 c3 -5 8 -10 11 -10 2 0 4 5 4 10 0 6 -5 10 -11 10 -5 0
-7 -4 -4 -10z"/>
<path d="M19377 16889 c7 -7 15 -10 18 -7 3 3 -2 9 -12 12 -14 6 -15 5 -6 -5z"/>
<path d="M25050 15755 c-7 -9 -11 -17 -9 -20 3 -2 10 5 17 15 14 24 10 26 -8
5z"/>
<path d="M15980 15746 c0 -2 8 -10 18 -17 15 -13 16 -12 3 4 -13 16 -21 21
-21 13z"/>
<path d="M17180 14056 c0 -2 8 -10 18 -17 15 -13 16 -12 3 4 -13 16 -21 21
-21 13z"/>
<path d="M22606 12313 c-6 -14 -5 -15 5 -6 7 7 10 15 7 18 -3 3 -9 -2 -12 -12z"/>
</g>
</svg>
